<svg xmlns="http://www.w3.org/2000/svg" xmlns:xlink="http://www.w3.org/1999/xlink" version="1.1" width="289pt" height="289pt" viewBox="0 0 289 289">
<defs>
<clipPath id="clip_0">
<path transform="matrix(0,-1,-1,-0,521,312)" d="M23 232H312V521H23Z" fill-rule="evenodd"/>
</clipPath>
<clipPath id="clip_1">
<path transform="matrix(0,-.06,-.06,-0,473,298)" d="M0 0H4671V11593H0V0"/>
</clipPath>
</defs>
<g clip-path="url(#clip_0)">
<g clip-path="url(#clip_1)">
<g id="layer_1" data-name="0">
<path transform="matrix(0,-.06,-.06,-0,473,298)" stroke-width="6" stroke-linecap="round" stroke-linejoin="round" fill="none" stroke="#c7c8ca" d="M1197 3761 2355 5766 1550 7161 392 5156 644 4720"/>
<path transform="matrix(0,-.06,-.06,-0,473,298)" stroke-width="6" stroke-linecap="round" stroke-linejoin="round" fill="none" stroke="#c7c8ca" d="M392 5156 971 6158H3739"/>
<path transform="matrix(0,-.06,-.06,-0,473,298)" stroke-width="9" stroke-linecap="round" stroke-linejoin="round" fill="none" stroke="#000000" d="M4041 6681 4594 5723 3990 4677"/>
<path transform="matrix(0,-.06,-.06,-0,473,298)" stroke-width="6" stroke-linecap="round" stroke-linejoin="round" fill="none" stroke="#c7c8ca" d="M3437 5635H2833L3387 4677H3990"/>
<path transform="matrix(0,-.06,-.06,-0,473,298)" stroke-width="6" stroke-linecap="round" stroke-linejoin="round" fill="none" stroke="#c7c8ca" d="M2581 5200 2773 5531 392 5156"/>
<path transform="matrix(0,-.06,-.06,-0,473,298)" stroke-width="6" stroke-linecap="round" stroke-linejoin="round" fill="none" stroke="#c7c8ca" d="M3497 6786 1550 7161"/>
<path transform="matrix(0,-.06,-.06,-0,473,298)" stroke-width="6" stroke-linecap="round" stroke-linejoin="round" fill="none" stroke="#c7c8ca" d="M2581 5200 2773 5531"/>
<path transform="matrix(0,-.06,-.06,-0,473,298)" stroke-width="6" stroke-linecap="round" stroke-linejoin="round" fill="none" stroke="#c7c8ca" d="M3497 6786 3839 7379"/>
<path transform="matrix(0,-.06,-.06,-0,473,298)" stroke-width="6" stroke-linecap="round" stroke-linejoin="round" fill="none" stroke="#c7c8ca" d="M392 5156 644 4720"/>
<path transform="matrix(0,-.06,-.06,-0,473,298)" stroke-width="6" stroke-linecap="round" stroke-linejoin="round" fill="none" stroke="#c7c8ca" d="M946 4197 1610 4302"/>
<path transform="matrix(0,-.06,-.06,-0,473,298)" stroke-width="9" stroke-linecap="round" stroke-linejoin="round" fill="none" stroke="#000000" d="M2773 5531 3024 5095"/>
<path transform="matrix(0,-.06,-.06,-0,473,298)" stroke-width="6" stroke-linecap="round" stroke-linejoin="round" fill="none" stroke="#c7c8ca" d="M1197 3761H1801"/>
<path transform="matrix(0,-.06,-.06,-0,473,298)" stroke-width="6" stroke-linecap="round" stroke-linejoin="round" fill="none" stroke="#c7c8ca" d="M3990 4677 4242 4241 1862 3866"/>
<path transform="matrix(0,-.06,-.06,-0,473,298)" stroke-width="6" stroke-linecap="round" stroke-linejoin="round" fill="none" stroke="#c7c8ca" d="M1801 3761 2053 4197"/>
<path transform="matrix(0,-.06,-.06,-0,473,298)" stroke-width="6" stroke-linecap="round" stroke-linejoin="round" fill="none" stroke="#c7c8ca" d="M1308 4825 855 5609"/>
<path transform="matrix(0,-.06,-.06,-0,473,298)" stroke-width="6" stroke-linecap="round" stroke-linejoin="round" fill="none" stroke="#c7c8ca" d="M1056 5261 2315 7440"/>
<path transform="matrix(0,-.06,-.06,-0,473,298)" stroke-width="6" stroke-linecap="round" stroke-linejoin="round" fill="none" stroke="#c7c8ca" d="M2345 6620 2566 7004"/>
<path transform="matrix(0,-.06,-.06,-0,473,298)" stroke-width="6" stroke-linecap="round" stroke-linejoin="round" fill="none" stroke="#c7c8ca" d="M2093 7056 3351 4877"/>
<path transform="matrix(0,-.06,-.06,-0,473,298)" stroke-width="6" stroke-linecap="round" stroke-linejoin="round" fill="none" stroke="#c7c8ca" d="M2345 6620 2898 5662 1862 3866"/>
<path transform="matrix(0,-.06,-.06,-0,473,298)" stroke-width="6" stroke-linecap="round" stroke-linejoin="round" fill="none" stroke="#c7c8ca" d="M392 5156 644 4720"/>
<path transform="matrix(0,-.06,-.06,-0,473,298)" stroke-width="6" stroke-linecap="round" stroke-linejoin="round" fill="none" stroke="#c7c8ca" d="M3024 5095 3688 5200 4292 6246"/>
<path transform="matrix(0,-.06,-.06,-0,473,298)" stroke-width="6" stroke-linecap="round" stroke-linejoin="round" fill="none" stroke="#c7c8ca" d="M1550 7161 1801 6725"/>
<path transform="matrix(0,-.06,-.06,-0,473,298)" stroke-width="6" stroke-linecap="round" stroke-linejoin="round" fill="none" stroke="#c7c8ca" d="M3296 6437 4292 6246"/>
<path transform="matrix(0,-.06,-.06,-0,473,298)" stroke-width="9" stroke-linecap="round" stroke-linejoin="round" fill="none" stroke="#000000" d="M4041 6681 3437 5635 3990 4677 3326 4572"/>
<path transform="matrix(0,-.06,-.06,-0,473,298)" stroke-width="9" stroke-linecap="round" stroke-linejoin="round" fill="none" stroke="#000000" d="M2773 5531 3437 5635"/>
<path transform="matrix(0,-.06,-.06,-0,473,298)" stroke-width="9" stroke-linecap="round" stroke-linejoin="round" fill="none" stroke="#000000" d="M4041 6681 3497 6786 2773 5531"/>
<path transform="matrix(0,-.06,-.06,-0,473,298)" stroke-width="9" stroke-linecap="round" stroke-linejoin="round" fill="none" stroke="#000000" d="M1801 6725 644 4720 1197 3761"/>
<path transform="matrix(0,-.06,-.06,-0,473,298)" stroke-width="9" stroke-linecap="round" stroke-linejoin="round" fill="none" stroke="#000000" d="M1610 4302 1862 3866 1197 3761"/>
<path transform="matrix(0,-.06,-.06,-0,473,298)" stroke-width="9" stroke-linecap="round" stroke-linejoin="round" fill="none" stroke="#000000" d="M644 4720 1308 4825"/>
<path transform="matrix(0,-.06,-.06,-0,473,298)" stroke-width="6" stroke-linecap="round" stroke-linejoin="round" fill="none" stroke="#c7c8ca" d="M2345 6620 1308 4825"/>
<path transform="matrix(0,-.06,-.06,-0,473,298)" stroke-width="9" stroke-linecap="round" stroke-linejoin="round" fill="none" stroke="#000000" d="M1801 6725 2345 6620"/>
<path transform="matrix(0,-.06,-.06,-0,473,298)" stroke-width="9" stroke-linecap="round" stroke-linejoin="round" fill="none" stroke="#000000" d="M3024 5095 1308 4825"/>
<path transform="matrix(0,-.06,-.06,-0,473,298)" stroke-width="9" stroke-linecap="round" stroke-linejoin="round" fill="none" stroke="#000000" d="M1610 4302 3326 4572"/>
<path transform="matrix(0,-.06,-.06,-0,473,298)" stroke-width="9" stroke-linecap="round" stroke-linejoin="round" fill="none" stroke="#000000" d="M2345 6620 3296 6437"/>
<path transform="matrix(0,-.06,-.06,-0,473,298)" stroke-width="6" stroke-linecap="round" stroke-linejoin="round" fill="none" stroke="#c7c8ca" d="M3024 5095 3326 4572"/>
<path transform="matrix(0,-.06,-.06,-0,473,298)" stroke-width="6" stroke-linecap="round" stroke-linejoin="round" fill="none" stroke="#c7c8ca" d="M1308 4825 1610 4302"/>
<path transform="matrix(0,-.06,-.06,-0,473,298)" stroke-width="6" stroke-linecap="round" stroke-linejoin="round" fill="none" stroke="#c7c8ca" d="M971 6158 1223 5723H2632L2430 5374 2632 5723 2430 5374H2028L2430 6071H3236L2833 5374H2430L2833 6071 2632 5723"/>
<path transform="matrix(0,-.06,-.06,-0,473,298)" stroke-width="6" stroke-linecap="round" stroke-linejoin="round" fill="none" stroke="#f8d731" d="M2632 5723H3034"/>
<path transform="matrix(0,-.06,-.06,-0,473,298)" stroke-width="6" stroke-linecap="round" stroke-linejoin="round" fill="none" stroke="#c7c8ca" d="M2430 5374V6071L3034 5723H2229L2833 5374V6071"/>
<path transform="matrix(.06,0,0,-.06,150.53,127.990009)" stroke-width="9" stroke-linecap="round" stroke-linejoin="round" fill="none" stroke="#000000" d="M-697.5 0C-697.5-249.20072-564.5488-479.4704-348.73069-604.06387"/>
<path transform="matrix(.06,0,0,-.06,108.71002,152.17)" stroke-width="9" stroke-linecap="round" stroke-linejoin="round" fill="none" stroke="#000000" d="M697.5 0C697.5 131.32991 660.42269 259.99168 590.53427 371.18135"/>
<path transform="matrix(.06,0,0,-.06,122.630008,127.990009)" stroke-width="9" stroke-linecap="round" stroke-linejoin="round" fill="none" stroke="#000000" d="M-130.20612 192.62039C-194.17176 149.38138-232.5 77.20891-232.5 0"/>
<path transform="matrix(.06,0,0,-.06,136.61002,152.17)" stroke-width="9" stroke-linecap="round" stroke-linejoin="round" fill="none" stroke="#000000" d="M-116.24357-201.35462C-44.30763-242.88379 44.31927-242.88167 116.25322-201.34905 188.18717-159.81644 232.5-83.06293 232.5 0"/>
</g>
</g>
</g>
</svg>
