<svg viewBox="331.7341576506955 294.984 320.71715610510046 306" version="1.1" xmlns:xlink="http://www.w3.org/1999/xlink" xmlns="http://www.w3.org/2000/svg" style="max-height: 500px" width="320.71715610510046" height="306">
<defs>
<clipPath id="clip_0">
<path d="M0 0H4671V11593H0V0" transform="matrix(0,-.06,-.06,-0,744,598)"/>
</clipPath>
</defs>
<g clip-path="url(#clip_0)">
<g data-name="0" id="layer_1">
<path d="M581 3776 1407 2346" stroke="#000000" fill="none" stroke-linejoin="round" stroke-linecap="round" stroke-width="9" transform="matrix(0,-.06,-.06,-0,744,598)"/>
<path d="M738 4541 1193 5329" stroke="#c7c8ca" fill="none" stroke-linejoin="round" stroke-linecap="round" stroke-width="6" transform="matrix(0,-.06,-.06,-0,744,598)"/>
<path d="M1492 5847 2460 4171 1407 2346" stroke="#c7c8ca" fill="none" stroke-linejoin="round" stroke-linecap="round" stroke-width="6" transform="matrix(0,-.06,-.06,-0,744,598)"/>
<path d="M439 4023H667" stroke="#000000" fill="none" stroke-linejoin="round" stroke-linecap="round" stroke-width="9" transform="matrix(0,-.06,-.06,-0,744,598)"/>
<path d="M1407 2346H1634" stroke="#000000" fill="none" stroke-linejoin="round" stroke-linecap="round" stroke-width="9" transform="matrix(0,-.06,-.06,-0,744,598)"/>
<path d="M1634 2346 2688 4171 1720 5847" stroke="#c7c8ca" fill="none" stroke-linejoin="round" stroke-linecap="round" stroke-width="6" transform="matrix(0,-.06,-.06,-0,744,598)"/>
<path d="M1421 5329 966 4541" stroke="#c7c8ca" fill="none" stroke-linejoin="round" stroke-linecap="round" stroke-width="6" transform="matrix(0,-.06,-.06,-0,744,598)"/>
<path d="M581 3776H1350" stroke="#c7c8ca" fill="none" stroke-linejoin="round" stroke-linecap="round" stroke-width="6" transform="matrix(0,-.06,-.06,-0,744,598)"/>
<path d="M1407 3678 1350 3776 667 4023" stroke="#000000" fill="none" stroke-linejoin="round" stroke-linecap="round" stroke-width="9" transform="matrix(0,-.06,-.06,-0,744,598)"/>
<path d="M1976 2691 2033 2593 1634 2346" stroke="#000000" fill="none" stroke-linejoin="round" stroke-linecap="round" stroke-width="9" transform="matrix(0,-.06,-.06,-0,744,598)"/>
<path d="M2403 5601 1720 5847" stroke="#000000" fill="none" stroke-linejoin="round" stroke-linecap="round" stroke-width="9" transform="matrix(0,-.06,-.06,-0,744,598)"/>
<path d="M2090 2691 3086 4417 2460 5502" stroke="#c7c8ca" fill="none" stroke-linejoin="round" stroke-linecap="round" stroke-width="6" transform="matrix(0,-.06,-.06,-0,744,598)"/>
<path d="M1350 3776 1407 3678H2175" stroke="#000000" fill="none" stroke-linejoin="round" stroke-linecap="round" stroke-width="9" transform="matrix(0,-.06,-.06,-0,744,598)"/>
<path d="M2033 2593 1976 2691H2631" stroke="#000000" fill="none" stroke-linejoin="round" stroke-linecap="round" stroke-width="9" transform="matrix(0,-.06,-.06,-0,744,598)"/>
<path d="M2631 3678H3200 2631L3200 2691H3770" stroke="#c7c8ca" fill="none" stroke-linejoin="round" stroke-linecap="round" stroke-width="6" transform="matrix(0,-.06,-.06,-0,744,598)"/>
<path d="M2061 3678 2631 2691" stroke="#c7c8ca" fill="none" stroke-linejoin="round" stroke-linecap="round" stroke-width="6" transform="matrix(0,-.06,-.06,-0,744,598)"/>
<path d="M3200 2691H3770L3200 3678 3485 3185 3200 3678" stroke="#c7c8ca" fill="none" stroke-linejoin="round" stroke-linecap="round" stroke-width="6" transform="matrix(0,-.06,-.06,-0,744,598)"/>
<path d="M2631 3678V2691L3485 3185H2346L3200 3678V2691" stroke="#c7c8ca" fill="none" stroke-linejoin="round" stroke-linecap="round" stroke-width="6" transform="matrix(0,-.06,-.06,-0,744,598)"/>
<path d="M2460 5502H3684" stroke="#000000" fill="none" stroke-linejoin="round" stroke-linecap="round" stroke-width="9" transform="matrix(0,-.06,-.06,-0,744,598)"/>
<path d="M3684 5502 2631 3678" stroke="#c7c8ca" fill="none" stroke-linejoin="round" stroke-linecap="round" stroke-width="6" transform="matrix(0,-.06,-.06,-0,744,598)"/>
<path d="M-493.2227 854.34988C-798.4622 678.1327-986.5 352.45378-986.5 0" stroke="#000000" fill="none" stroke-linejoin="round" stroke-linecap="round" stroke-width="9" transform="matrix(.06,0,0,-.06,582.51,440.11)"/>
<path d="M328.5 0C328.5 117.35988 265.89024 225.80516 164.25455 284.48674 62.61885 343.16828-62.6024 343.1713-164.2409 284.4946" stroke="#000000" fill="none" stroke-linejoin="round" stroke-linecap="round" stroke-width="9" transform="matrix(.06,0,0,-.06,562.77,405.97)"/>
<path d="M1720 5847H2859L3058 5502 2873 5182" stroke="#c7c8ca" fill="none" stroke-linejoin="round" stroke-linecap="round" stroke-width="6" transform="matrix(0,-.06,-.06,-0,744,598)"/>
<path d="M2802 5058 2261 4121" stroke="#c7c8ca" fill="none" stroke-linejoin="round" stroke-linecap="round" stroke-width="6" transform="matrix(0,-.06,-.06,-0,744,598)"/>
<path d="M2190 3998 2005 3678" stroke="#c7c8ca" fill="none" stroke-linejoin="round" stroke-linecap="round" stroke-width="6" transform="matrix(0,-.06,-.06,-0,744,598)"/>
<path d="M3058 5502 2873 5182" stroke="#c7c8ca" fill="none" stroke-linejoin="round" stroke-linecap="round" stroke-width="6" transform="matrix(0,-.06,-.06,-0,744,598)"/>
<path d="M2802 5058 2531 4590H1820" stroke="#c7c8ca" fill="none" stroke-linejoin="round" stroke-linecap="round" stroke-width="6" transform="matrix(0,-.06,-.06,-0,744,598)"/>
<path d="M2531 4590H2076" stroke="#c7c8ca" fill="none" stroke-linejoin="round" stroke-linecap="round" stroke-width="6" transform="matrix(0,-.06,-.06,-0,744,598)"/>
<path d="M2076 4590 1962 4393 2147 4713" stroke="#000000" fill="none" stroke-linejoin="round" stroke-linecap="round" stroke-width="9" transform="matrix(0,-.06,-.06,-0,744,598)"/>
<path d="M2261 4121 2531 4590 2802 5058" stroke="#c7c8ca" fill="none" stroke-linejoin="round" stroke-linecap="round" stroke-width="6" transform="matrix(0,-.06,-.06,-0,744,598)"/>
<path d="M2261 4121 1962 4393" stroke="#000000" fill="none" stroke-linejoin="round" stroke-linecap="round" stroke-width="9" transform="matrix(0,-.06,-.06,-0,744,598)"/>
<path d="M2873 5182H3499" stroke="#000000" fill="none" stroke-linejoin="round" stroke-linecap="round" stroke-width="9" transform="matrix(0,-.06,-.06,-0,744,598)"/>
<path d="M2190 3998H2816" stroke="#000000" fill="none" stroke-linejoin="round" stroke-linecap="round" stroke-width="9" transform="matrix(0,-.06,-.06,-0,744,598)"/>
<path d="M-493.2227 854.34988C-798.4622 678.1327-986.5 352.45378-986.5 0" stroke="#000000" fill="none" stroke-linejoin="round" stroke-linecap="round" stroke-width="9" transform="matrix(.06,0,0,-.06,563.25,429.01)"/>
<path d="M164.2409 284.4946C62.60727 343.16847-62.60727 343.16847-164.2409 284.4946" stroke="#000000" fill="none" stroke-linejoin="round" stroke-linecap="round" stroke-width="9" transform="matrix(.06,0,0,-.06,543.51,394.87)"/>
<path d="M2873 5182 3442 4195H4068" stroke="#000000" fill="none" stroke-linejoin="round" stroke-linecap="round" stroke-width="9" transform="matrix(0,-.06,-.06,-0,744,598)"/>
<path d="M3499 5182 4068 4195" stroke="#c7c8ca" fill="none" stroke-linejoin="round" stroke-linecap="round" stroke-width="6" transform="matrix(0,-.06,-.06,-0,744,598)"/>
<path d="M-493.2227 854.34988C-798.4622 678.1327-986.5 352.45378-986.5 0" stroke="#000000" fill="none" stroke-linejoin="round" stroke-linecap="round" stroke-width="9" transform="matrix(.06,0,0,-.06,492.27003,388.03)"/>
<path d="M328.5 0C328.5 117.35988 265.89024 225.80516 164.25455 284.48674 62.61885 343.16828-62.6024 343.1713-164.2409 284.4946" stroke="#000000" fill="none" stroke-linejoin="round" stroke-linecap="round" stroke-width="9" transform="matrix(.06,0,0,-.06,472.53,353.89)"/>
<path d="M-493.2227 854.34988C-798.4622 678.1327-986.5 352.45378-986.5 0" stroke="#000000" fill="none" stroke-linejoin="round" stroke-linecap="round" stroke-width="9" transform="matrix(.06,0,0,-.06,473.01,376.93)"/>
<path d="M164.2409 284.4946C62.60727 343.16847-62.60727 343.16847-164.2409 284.4946" stroke="#000000" fill="none" stroke-linejoin="round" stroke-linecap="round" stroke-width="9" transform="matrix(.06,0,0,-.06,453.27003,342.79)"/>
<path d="M3670 3176 4353 4360" stroke="#c7c8ca" fill="none" stroke-linejoin="round" stroke-linecap="round" stroke-width="6" transform="matrix(0,-.06,-.06,-0,744,598)"/>
<path d="M2802 5058 3371 4072" stroke="#000000" fill="none" stroke-linejoin="round" stroke-linecap="round" stroke-width="9" transform="matrix(0,-.06,-.06,-0,744,598)"/>
<path d="M2346 4516 2602 4072" stroke="#c7c8ca" fill="none" stroke-linejoin="round" stroke-linecap="round" stroke-width="6" transform="matrix(0,-.06,-.06,-0,744,598)"/>
<path d="M2645 3998 2759 3801 3106 3955" stroke="#c7c8ca" fill="none" stroke-linejoin="round" stroke-linecap="round" stroke-width="6" transform="matrix(0,-.06,-.06,-0,744,598)"/>
<path d="M3371 4072 3442 4195" stroke="#000000" fill="none" stroke-linejoin="round" stroke-linecap="round" stroke-width="9" transform="matrix(0,-.06,-.06,-0,744,598)"/>
<path d="M2332 3998 2830 3135" stroke="#c7c8ca" fill="none" stroke-linejoin="round" stroke-linecap="round" stroke-width="6" transform="matrix(0,-.06,-.06,-0,744,598)"/>
<path d="M1193 5329 966 4935 738 4541" stroke="#c7c8ca" fill="none" stroke-linejoin="round" stroke-linecap="round" stroke-width="6" transform="matrix(0,-.06,-.06,-0,744,598)"/>
<path d="M1222 4541H966L1421 5329H1677" stroke="#c7c8ca" fill="none" stroke-linejoin="round" stroke-linecap="round" stroke-width="6" transform="matrix(0,-.06,-.06,-0,744,598)"/>
<path d="M1649 4294 1289 4424" stroke="#c7c8ca" fill="none" stroke-linejoin="round" stroke-linecap="round" stroke-width="6" transform="matrix(0,-.06,-.06,-0,744,598)"/>
<path d="M2104 5083 1745 5213" stroke="#c7c8ca" fill="none" stroke-linejoin="round" stroke-linecap="round" stroke-width="6" transform="matrix(0,-.06,-.06,-0,744,598)"/>
<path d="M1677 5329 1820 5083" stroke="#c7c8ca" fill="none" stroke-linejoin="round" stroke-linecap="round" stroke-width="6" transform="matrix(0,-.06,-.06,-0,744,598)"/>
<path d="M1222 4541 1364 4294" stroke="#c7c8ca" fill="none" stroke-linejoin="round" stroke-linecap="round" stroke-width="6" transform="matrix(0,-.06,-.06,-0,744,598)"/>
<path d="M1745 5213 1289 4424" stroke="#000000" fill="none" stroke-linejoin="round" stroke-linecap="round" stroke-width="9" transform="matrix(0,-.06,-.06,-0,744,598)"/>
<path d="M1193 5329 1503 4794" stroke="#000000" fill="none" stroke-linejoin="round" stroke-linecap="round" stroke-width="9" transform="matrix(0,-.06,-.06,-0,744,598)"/>
<path d="M1990 4886H2412" stroke="#c7c8ca" fill="none" stroke-linejoin="round" stroke-linecap="round" stroke-width="6" transform="matrix(0,-.06,-.06,-0,744,598)"/>
<path d="M1649 4294H2071" stroke="#c7c8ca" fill="none" stroke-linejoin="round" stroke-linecap="round" stroke-width="6" transform="matrix(0,-.06,-.06,-0,744,598)"/>
<path d="M2412 4886 2569 4615" stroke="#c7c8ca" fill="none" stroke-linejoin="round" stroke-linecap="round" stroke-width="6" transform="matrix(0,-.06,-.06,-0,744,598)"/>
<path d="M2825 4171 2982 3900" stroke="#c7c8ca" fill="none" stroke-linejoin="round" stroke-linecap="round" stroke-width="6" transform="matrix(0,-.06,-.06,-0,744,598)"/>
<path d="M2412 4886 2569 4615" stroke="#c7c8ca" fill="none" stroke-linejoin="round" stroke-linecap="round" stroke-width="6" transform="matrix(0,-.06,-.06,-0,744,598)"/>
<path d="M2697 4393H2903" stroke="#c7c8ca" fill="none" stroke-linejoin="round" stroke-linecap="round" stroke-width="6" transform="matrix(0,-.06,-.06,-0,744,598)"/>
<path d="M2569 4615H2796 2569" stroke="#c7c8ca" fill="none" stroke-linejoin="round" stroke-linecap="round" stroke-width="6" transform="matrix(0,-.06,-.06,-0,744,598)"/>
<path d="M2825 4171H2869" stroke="#c7c8ca" fill="none" stroke-linejoin="round" stroke-linecap="round" stroke-width="6" transform="matrix(0,-.06,-.06,-0,744,598)"/>
<path d="M2569 4615H2289" stroke="#c7c8ca" fill="none" stroke-linejoin="round" stroke-linecap="round" stroke-width="6" transform="matrix(0,-.06,-.06,-0,744,598)"/>
<path d="M2697 4393H2188 1882" stroke="#c7c8ca" fill="none" stroke-linejoin="round" stroke-linecap="round" stroke-width="6" transform="matrix(0,-.06,-.06,-0,744,598)"/>
<path d="M2289 4615H2010" stroke="#c7c8ca" fill="none" stroke-linejoin="round" stroke-linecap="round" stroke-width="6" transform="matrix(0,-.06,-.06,-0,744,598)"/>
<path d="M2206 4171H2047" stroke="#c7c8ca" fill="none" stroke-linejoin="round" stroke-linecap="round" stroke-width="6" transform="matrix(0,-.06,-.06,-0,744,598)"/>
<path d="M1492 5847 1193 5329" stroke="#000000" fill="none" stroke-linejoin="round" stroke-linecap="round" stroke-width="9" transform="matrix(0,-.06,-.06,-0,744,598)"/>
<path d="M738 4541 439 4023" stroke="#000000" fill="none" stroke-linejoin="round" stroke-linecap="round" stroke-width="9" transform="matrix(0,-.06,-.06,-0,744,598)"/>
<path d="M1193 5329H1421" stroke="#000000" fill="none" stroke-linejoin="round" stroke-linecap="round" stroke-width="9" transform="matrix(0,-.06,-.06,-0,744,598)"/>
<path d="M738 4541H966" stroke="#000000" fill="none" stroke-linejoin="round" stroke-linecap="round" stroke-width="9" transform="matrix(0,-.06,-.06,-0,744,598)"/>
<path d="M1720 5847 1421 5329 1745 5213" stroke="#000000" fill="none" stroke-linejoin="round" stroke-linecap="round" stroke-width="9" transform="matrix(0,-.06,-.06,-0,744,598)"/>
<path d="M667 4023 966 4541 1289 4424" stroke="#000000" fill="none" stroke-linejoin="round" stroke-linecap="round" stroke-width="9" transform="matrix(0,-.06,-.06,-0,744,598)"/>
<path d="M2033 2593 2090 2691" stroke="#000000" fill="none" stroke-linejoin="round" stroke-linecap="round" stroke-width="9" transform="matrix(0,-.06,-.06,-0,744,598)"/>
<path d="M1350 3776 2403 5601" stroke="#000000" fill="none" stroke-linejoin="round" stroke-linecap="round" stroke-width="9" transform="matrix(0,-.06,-.06,-0,744,598)"/>
<path d="M439 4023 581 3776" stroke="#000000" fill="none" stroke-linejoin="round" stroke-linecap="round" stroke-width="9" transform="matrix(0,-.06,-.06,-0,744,598)"/>
<path d="M2631 2691H3200" stroke="#000000" fill="none" stroke-linejoin="round" stroke-linecap="round" stroke-width="9" transform="matrix(0,-.06,-.06,-0,744,598)"/>
<path d="M3670 3176 3485 2856" stroke="#000000" fill="none" stroke-linejoin="round" stroke-linecap="round" stroke-width="9" transform="matrix(0,-.06,-.06,-0,744,598)"/>
<path d="M4353 4360 4538 4680" stroke="#000000" fill="none" stroke-linejoin="round" stroke-linecap="round" stroke-width="9" transform="matrix(0,-.06,-.06,-0,744,598)"/>
<path d="M2403 5601 2460 5502" stroke="#000000" fill="none" stroke-linejoin="round" stroke-linecap="round" stroke-width="9" transform="matrix(0,-.06,-.06,-0,744,598)"/>
<path d="M2631 3678H2175" stroke="#000000" fill="none" stroke-linejoin="round" stroke-linecap="round" stroke-width="9" transform="matrix(0,-.06,-.06,-0,744,598)"/>
<path d="M2873 5182 2802 5058 2190 4787 2147 4713" stroke="#000000" fill="none" stroke-linejoin="round" stroke-linecap="round" stroke-width="9" transform="matrix(0,-.06,-.06,-0,744,598)"/>
<path d="M2261 4121 2190 3998" stroke="#000000" fill="none" stroke-linejoin="round" stroke-linecap="round" stroke-width="9" transform="matrix(0,-.06,-.06,-0,744,598)"/>
<path d="M2460 5502 1407 3678" stroke="#000000" fill="none" stroke-linejoin="round" stroke-linecap="round" stroke-width="9" transform="matrix(0,-.06,-.06,-0,744,598)"/>
<path d="M2569 4615 2825 4171" stroke="#000000" fill="none" stroke-linejoin="round" stroke-linecap="round" stroke-width="9" transform="matrix(0,-.06,-.06,-0,744,598)"/>
<path d="M1962 4393 2118 4121 2167 4206" stroke="#c7c8ca" fill="none" stroke-linejoin="round" stroke-linecap="round" stroke-width="6" transform="matrix(0,-.06,-.06,-0,744,598)"/>
<path d="M2346 4516 2602 4072" stroke="#c7c8ca" fill="none" stroke-linejoin="round" stroke-linecap="round" stroke-width="6" transform="matrix(0,-.06,-.06,-0,744,598)"/>
<path d="M2118 4121 2375 3678 2560 3998" stroke="#c7c8ca" fill="none" stroke-linejoin="round" stroke-linecap="round" stroke-width="6" transform="matrix(0,-.06,-.06,-0,744,598)"/>
<path d="M2602 4072 2825 4171" stroke="#000000" fill="none" stroke-linejoin="round" stroke-linecap="round" stroke-width="9" transform="matrix(0,-.06,-.06,-0,744,598)"/>
<path d="M2190 4787 2346 4516 2569 4615" stroke="#000000" fill="none" stroke-linejoin="round" stroke-linecap="round" stroke-width="9" transform="matrix(0,-.06,-.06,-0,744,598)"/>
<path d="M2346 4516 2275 4393 2167 4206" stroke="#000000" fill="none" stroke-linejoin="round" stroke-linecap="round" stroke-width="9" transform="matrix(0,-.06,-.06,-0,744,598)"/>
<path d="M2261 4121 2332 3998" stroke="#000000" fill="none" stroke-linejoin="round" stroke-linecap="round" stroke-width="9" transform="matrix(0,-.06,-.06,-0,744,598)"/>
<path d="M2560 3998 2602 4072 2645 3998" stroke="#000000" fill="none" stroke-linejoin="round" stroke-linecap="round" stroke-width="9" transform="matrix(0,-.06,-.06,-0,744,598)"/>
<path d="M3106 3955 3371 4072" stroke="#000000" fill="none" stroke-linejoin="round" stroke-linecap="round" stroke-width="9" transform="matrix(0,-.06,-.06,-0,744,598)"/>
<path d="M2825 4171H2346" stroke="#000000" fill="none" stroke-linejoin="round" stroke-linecap="round" stroke-width="9" transform="matrix(0,-.06,-.06,-0,744,598)"/>
<path d="M1492 5847H1720" stroke="#000000" fill="none" stroke-linejoin="round" stroke-linecap="round" stroke-width="9" transform="matrix(0,-.06,-.06,-0,744,598)"/>
<path d="M2916 3185H3257L3428 2889H2745L2403 3480H3086L3428 2889" stroke="#c7c8ca" fill="none" stroke-linejoin="round" stroke-linecap="round" stroke-width="6" transform="matrix(0,-.06,-.06,-0,744,598)"/>
<path d="M2745 3480V2889L3257 3185" stroke="#c7c8ca" fill="none" stroke-linejoin="round" stroke-linecap="round" stroke-width="6" transform="matrix(0,-.06,-.06,-0,744,598)"/>
<path d="M2574 3185 3086 3480V2889" stroke="#c7c8ca" fill="none" stroke-linejoin="round" stroke-linecap="round" stroke-width="6" transform="matrix(0,-.06,-.06,-0,744,598)"/>
<path d="M197.5 0C197.5 70.55883 159.85791 135.75804 98.75273 171.03844 37.64756 206.31884-37.63767 206.32064-98.74454 171.04317" stroke="#000000" fill="none" stroke-linejoin="round" stroke-linecap="round" stroke-width="9" transform="matrix(.06,0,0,-.06,558.81,412.81)"/>
<path d="M-197.5 0C-197.5-70.55883-159.85791-135.75804-98.75273-171.03844-37.64756-206.31884 37.63767-206.32064 98.74454-171.04317" stroke="#000000" fill="none" stroke-linejoin="round" stroke-linecap="round" stroke-width="9" transform="matrix(.06,0,0,-.06,546.99,433.27003)"/>
<path d="M295.73365-512.2635C478.7536-406.60466 591.5-211.32935 591.5 0" stroke="#000000" fill="none" stroke-linejoin="round" stroke-linecap="round" stroke-width="9" transform="matrix(.06,0,0,-.06,535.17,412.81)"/>
<path d="M-295.73365 512.2635C-478.7536 406.60466-591.5 211.32935-591.5 0" stroke="#000000" fill="none" stroke-linejoin="round" stroke-linecap="round" stroke-width="9" transform="matrix(.06,0,0,-.06,570.63,433.27003)"/>
<path d="M-581.538-108.10084C-581.1822-110.01507-580.8169-111.92754-580.4422-113.83816" stroke="#c7c8ca" fill="none" stroke-linejoin="round" stroke-linecap="round" stroke-width="6" transform="matrix(.06,0,0,-.06,570.63,433.27003)"/>
<path d="M321.03709-496.79719C481.4352-393.14576 581.92098-218.42937 590.8527-27.66407" stroke="#000000" fill="none" stroke-linejoin="round" stroke-linecap="round" stroke-width="9" transform="matrix(.06,0,0,-.06,515.91006,401.83003)"/>
<path d="M197.5 0C197.5 70.55883 159.85791 135.75804 98.75273 171.03844 37.64756 206.31884-37.63767 206.32064-98.74454 171.04317" stroke="#000000" fill="none" stroke-linejoin="round" stroke-linecap="round" stroke-width="9" transform="matrix(.06,0,0,-.06,468.57,360.79)"/>
<path d="M-197.5 0C-197.5-70.55883-159.85791-135.75804-98.75273-171.03844-37.64756-206.31884 37.63767-206.32064 98.74454-171.04317" stroke="#000000" fill="none" stroke-linejoin="round" stroke-linecap="round" stroke-width="9" transform="matrix(.06,0,0,-.06,456.75,381.31)"/>
<path d="M295.73365-512.2635C478.7536-406.60466 591.5-211.32935 591.5 0" stroke="#000000" fill="none" stroke-linejoin="round" stroke-linecap="round" stroke-width="9" transform="matrix(.06,0,0,-.06,444.93,360.79)"/>
<path d="M-295.73365 512.2635C-478.7536 406.60466-591.5 211.32935-591.5 0" stroke="#000000" fill="none" stroke-linejoin="round" stroke-linecap="round" stroke-width="9" transform="matrix(.06,0,0,-.06,480.39,381.31)"/>
<path d="M3641 4984 3670 4942 3703 4903 3739 4867 3778 4835 3820 4806 3864 4780 3910 4759 3958 4741 4007 4728 4057 4719 4108 4714" stroke="#000000" fill="none" stroke-linejoin="round" stroke-linecap="round" stroke-width="9" transform="matrix(0,-.06,-.06,-0,744,598)"/>
<path d="M2346 4171H2206" stroke="#000000" fill="none" stroke-linejoin="round" stroke-linecap="round" stroke-width="9" transform="matrix(0,-.06,-.06,-0,744,598)"/>
</g>
</g>
</svg>