<svg viewBox="277.8732612055641 265.608 359.88871715610514 339.048" version="1.1" xmlns:xlink="http://www.w3.org/1999/xlink" xmlns="http://www.w3.org/2000/svg" style="max-height: 500px" width="359.88871715610514" height="339.048">
<defs>
<clipPath id="clip_0">
<path d="M0 0H5353V11593H0V0" transform="matrix(0,-.06,-.06,-0,744,598)"/>
</clipPath>
</defs>
<g clip-path="url(#clip_0)">
<g data-name="0" id="layer_1">
<path d="M395 4101 1249 2620" stroke="#939598" fill="none" stroke-linejoin="round" stroke-linecap="round" stroke-width="6" transform="matrix(0,-.06,-.06,-0,744,598)"/>
<path d="M395 4101 1890 6691" stroke="#000000" fill="none" stroke-linejoin="round" stroke-linecap="round" stroke-width="9" transform="matrix(0,-.06,-.06,-0,744,598)"/>
<path d="M1890 6691 2317 5951" stroke="#939598" fill="none" stroke-linejoin="round" stroke-linecap="round" stroke-width="6" transform="matrix(0,-.06,-.06,-0,744,598)"/>
<path d="M2745 5211 2531 4841" stroke="#939598" fill="none" stroke-linejoin="round" stroke-linecap="round" stroke-width="6" transform="matrix(0,-.06,-.06,-0,744,598)"/>
<path d="M2104 4101 1249 2620" stroke="#939598" fill="none" stroke-linejoin="round" stroke-linecap="round" stroke-width="6" transform="matrix(0,-.06,-.06,-0,744,598)"/>
<path d="M395 4101H1249" stroke="#939598" fill="none" stroke-linejoin="round" stroke-linecap="round" stroke-width="6" transform="matrix(0,-.06,-.06,-0,744,598)"/>
<path d="M1249 2620H2104" stroke="#939598" fill="none" stroke-linejoin="round" stroke-linecap="round" stroke-width="6" transform="matrix(0,-.06,-.06,-0,744,598)"/>
<path d="M1890 6691H3599" stroke="#000000" fill="none" stroke-linejoin="round" stroke-linecap="round" stroke-width="9" transform="matrix(0,-.06,-.06,-0,744,598)"/>
<path d="M2531 4841 2745 5211H4454L3599 6691 3172 5951" stroke="#939598" fill="none" stroke-linejoin="round" stroke-linecap="round" stroke-width="6" transform="matrix(0,-.06,-.06,-0,744,598)"/>
<path d="M2104 4101 2958 2620 4454 5211" stroke="#939598" fill="none" stroke-linejoin="round" stroke-linecap="round" stroke-width="6" transform="matrix(0,-.06,-.06,-0,744,598)"/>
<path d="M395 4101 1249 2620H2104" stroke="#000000" fill="none" stroke-linejoin="round" stroke-linecap="round" stroke-width="9" transform="matrix(0,-.06,-.06,-0,744,598)"/>
<path d="M2958 2620 2104 4101 2531 3361H1676 3386L3813 2620 2958 4101H2104" stroke="#939598" fill="none" stroke-linejoin="round" stroke-linecap="round" stroke-width="6" transform="matrix(0,-.06,-.06,-0,744,598)"/>
<path d="M1249 4101 2104 2620" stroke="#939598" fill="none" stroke-linejoin="round" stroke-linecap="round" stroke-width="6" transform="matrix(0,-.06,-.06,-0,744,598)"/>
<path d="M1676 3361 2958 4101V2620H3813" stroke="#939598" fill="none" stroke-linejoin="round" stroke-linecap="round" stroke-width="6" transform="matrix(0,-.06,-.06,-0,744,598)"/>
<path d="M3386 3361 2104 2620V4101" stroke="#939598" fill="none" stroke-linejoin="round" stroke-linecap="round" stroke-width="6" transform="matrix(0,-.06,-.06,-0,744,598)"/>
<path d="M-740.20907 1282.1743C-1198.3004 1017.7146-1480.5 528.9486-1480.5 0" stroke="#000000" fill="none" stroke-linejoin="round" stroke-linecap="round" stroke-width="9" transform="matrix(.06,0,0,-.06,586.77,471.73)"/>
<path d="M493.5 0C493.5 176.30776 399.4424 339.22328 246.75684 427.3796 94.07124 515.5359-94.04652 515.5404-246.73635 427.39143" stroke="#000000" fill="none" stroke-linejoin="round" stroke-linecap="round" stroke-width="9" transform="matrix(.06,0,0,-.06,557.13,420.49)"/>
<path d="M2958 3050 3386 3790" stroke="#939598" fill="none" stroke-linejoin="round" stroke-linecap="round" stroke-width="6" transform="matrix(0,-.06,-.06,-0,744,598)"/>
<path d="M3386 3361 3813 4101" stroke="#939598" fill="none" stroke-linejoin="round" stroke-linecap="round" stroke-width="6" transform="matrix(0,-.06,-.06,-0,744,598)"/>
<path d="M2104 2620 2531 3361" stroke="#939598" fill="none" stroke-linejoin="round" stroke-linecap="round" stroke-width="6" transform="matrix(0,-.06,-.06,-0,744,598)"/>
<path d="M-740.20907 1282.1743C-1198.3004 1017.7146-1480.5 528.9486-1480.5 0" stroke="#000000" fill="none" stroke-linejoin="round" stroke-linecap="round" stroke-width="9" transform="matrix(.06,0,0,-.06,542.31,446.11)"/>
<path d="M246.73635 427.39143C94.05385 515.5362-94.05385 515.5362-246.73635 427.39143" stroke="#000000" fill="none" stroke-linejoin="round" stroke-linecap="round" stroke-width="9" transform="matrix(.06,0,0,-.06,512.73,394.81)"/>
<path d="M-740.20907 1282.1743C-1198.3004 1017.7146-1480.5 528.9486-1480.5 0" stroke="#000000" fill="none" stroke-linejoin="round" stroke-linecap="round" stroke-width="9" transform="matrix(.06,0,0,-.06,475.71,407.65003)"/>
<path d="M493.5 0C493.5 176.30776 399.4424 339.22328 246.75684 427.3796 94.07124 515.5359-94.04652 515.5404-246.73635 427.39143" stroke="#000000" fill="none" stroke-linejoin="round" stroke-linecap="round" stroke-width="9" transform="matrix(.06,0,0,-.06,446.13,356.35)"/>
<path d="M-740.20907 1282.1743C-1198.3004 1017.7146-1480.5 528.9486-1480.5 0" stroke="#000000" fill="none" stroke-linejoin="round" stroke-linecap="round" stroke-width="9" transform="matrix(.06,0,0,-.06,431.31,382.03)"/>
<path d="M246.73635 427.39143C94.05385 515.5362-94.05385 515.5362-246.73635 427.39143" stroke="#000000" fill="none" stroke-linejoin="round" stroke-linecap="round" stroke-width="9" transform="matrix(.06,0,0,-.06,401.73,330.73)"/>
<path d="M2958 3114 3813 2620" stroke="#939598" fill="none" stroke-linejoin="round" stroke-linecap="round" stroke-width="6" transform="matrix(0,-.06,-.06,-0,744,598)"/>
<path d="M3386 2867 3528 3114" stroke="#939598" fill="none" stroke-linejoin="round" stroke-linecap="round" stroke-width="6" transform="matrix(0,-.06,-.06,-0,744,598)"/>
<path d="M3813 3607 4454 4718" stroke="#939598" fill="none" stroke-linejoin="round" stroke-linecap="round" stroke-width="6" transform="matrix(0,-.06,-.06,-0,744,598)"/>
<path d="M395 4101H1249" stroke="#000000" fill="none" stroke-linejoin="round" stroke-linecap="round" stroke-width="9" transform="matrix(0,-.06,-.06,-0,744,598)"/>
<path d="M1676 4841 1249 4101" stroke="#939598" fill="none" stroke-linejoin="round" stroke-linecap="round" stroke-width="6" transform="matrix(0,-.06,-.06,-0,744,598)"/>
<path d="M2317 5951 2745 6691" stroke="#939598" fill="none" stroke-linejoin="round" stroke-linecap="round" stroke-width="6" transform="matrix(0,-.06,-.06,-0,744,598)"/>
<path d="M2531 4841H1676" stroke="#000000" fill="none" stroke-linejoin="round" stroke-linecap="round" stroke-width="9" transform="matrix(0,-.06,-.06,-0,744,598)"/>
<path d="M3172 5951H2317" stroke="#000000" fill="none" stroke-linejoin="round" stroke-linecap="round" stroke-width="9" transform="matrix(0,-.06,-.06,-0,744,598)"/>
<path d="M3003 4764 3172 4471H3510" stroke="#939598" fill="none" stroke-linejoin="round" stroke-linecap="round" stroke-width="6" transform="matrix(0,-.06,-.06,-0,744,598)"/>
<path d="M2531 3361H2958L3172 2991H2317L1890 3731H2745L2958 3361" stroke="#939598" fill="none" stroke-linejoin="round" stroke-linecap="round" stroke-width="6" transform="matrix(0,-.06,-.06,-0,744,598)"/>
<path d="M2745 2991V3731L2104 3361" stroke="#939598" fill="none" stroke-linejoin="round" stroke-linecap="round" stroke-width="6" transform="matrix(0,-.06,-.06,-0,744,598)"/>
<path d="M2317 3731V2991L2958 3361" stroke="#939598" fill="none" stroke-linejoin="round" stroke-linecap="round" stroke-width="6" transform="matrix(0,-.06,-.06,-0,744,598)"/>
<path d="M-370.2295 641.30368C-599.35256 509.02915-740.5 264.56364-740.5 0" stroke="#000000" fill="none" stroke-linejoin="round" stroke-linecap="round" stroke-width="9" transform="matrix(.06,0,0,-.06,564.51,458.95)"/>
<path d="M246.5 0C246.5 88.06457 199.51886 169.43979 123.25341 213.4733 46.98796 257.5068-46.97562 257.50904-123.24318 213.4792" stroke="#000000" fill="none" stroke-linejoin="round" stroke-linecap="round" stroke-width="9" transform="matrix(.06,0,0,-.06,549.75,433.27003)"/>
<path d="M370.2295-641.30368C599.35256-509.02915 740.5-264.56364 740.5 0" stroke="#000000" fill="none" stroke-linejoin="round" stroke-linecap="round" stroke-width="9" transform="matrix(.06,0,0,-.06,520.11,433.27003)"/>
<path d="M-246.5 0C-246.5-88.06457-199.51886-169.43979-123.25341-213.4733-46.98796-257.5068 46.97562-257.50904 123.24318-213.4792" stroke="#000000" fill="none" stroke-linejoin="round" stroke-linecap="round" stroke-width="9" transform="matrix(.06,0,0,-.06,534.93,458.95)"/>
<path d="M-370.2295 641.30368C-599.35256 509.02915-740.5 264.56364-740.5 0" stroke="#939598" fill="none" stroke-linejoin="round" stroke-linecap="round" stroke-width="6" transform="matrix(.06,0,0,-.06,520.11,433.27003)"/>
<path d="M246.5 0C246.5 88.06457 199.51886 169.43979 123.25341 213.4733 46.98796 257.5068-46.97562 257.50904-123.24318 213.4792" stroke="#939598" fill="none" stroke-linejoin="round" stroke-linecap="round" stroke-width="6" transform="matrix(.06,0,0,-.06,505.35,407.65003)"/>
<path d="M370.2295-641.30368C599.35256-509.02915 740.5-264.56364 740.5 0" stroke="#939598" fill="none" stroke-linejoin="round" stroke-linecap="round" stroke-width="6" transform="matrix(.06,0,0,-.06,475.71,407.65003)"/>
<path d="M-246.5 0C-246.5-88.06457-199.51886-169.43979-123.25341-213.4733-46.98796-257.5068 46.97562-257.50904 123.24318-213.4792" stroke="#939598" fill="none" stroke-linejoin="round" stroke-linecap="round" stroke-width="6" transform="matrix(.06,0,0,-.06,490.53,433.27003)"/>
<path d="M-370.2295 641.30368C-599.35256 509.02915-740.5 264.56364-740.5 0" stroke="#000000" fill="none" stroke-linejoin="round" stroke-linecap="round" stroke-width="9" transform="matrix(.06,0,0,-.06,453.51,394.81)"/>
<path d="M246.5 0C246.5 88.06457 199.51886 169.43979 123.25341 213.4733 46.98796 257.5068-46.97562 257.50904-123.24318 213.4792" stroke="#000000" fill="none" stroke-linejoin="round" stroke-linecap="round" stroke-width="9" transform="matrix(.06,0,0,-.06,438.69,369.19)"/>
<path d="M370.2295-641.30368C599.35256-509.02915 740.5-264.56364 740.5 0" stroke="#000000" fill="none" stroke-linejoin="round" stroke-linecap="round" stroke-width="9" transform="matrix(.06,0,0,-.06,409.11003,369.19)"/>
<path d="M-246.5 0C-246.5-88.06457-199.51886-169.43979-123.25341-213.4733-46.98796-257.5068 46.97562-257.50904 123.24318-213.4792" stroke="#000000" fill="none" stroke-linejoin="round" stroke-linecap="round" stroke-width="9" transform="matrix(.06,0,0,-.06,423.93,394.81)"/>
<path d="M-370.2295 641.30368C-599.35256 509.02915-740.5 264.56364-740.5 0" stroke="#939598" fill="none" stroke-linejoin="round" stroke-linecap="round" stroke-width="6" transform="matrix(.06,0,0,-.06,409.11003,369.19)"/>
<path d="M246.5 0C246.5 88.06457 199.51886 169.43979 123.25341 213.4733 46.98796 257.5068-46.97562 257.50904-123.24318 213.4792" stroke="#939598" fill="none" stroke-linejoin="round" stroke-linecap="round" stroke-width="6" transform="matrix(.06,0,0,-.06,394.29,343.57)"/>
<path d="M370.2295-641.30368C599.35256-509.02915 740.5-264.56364 740.5 0" stroke="#939598" fill="none" stroke-linejoin="round" stroke-linecap="round" stroke-width="6" transform="matrix(.06,0,0,-.06,364.71003,343.57)"/>
<path d="M-246.5 0C-246.5-88.06457-199.51886-169.43979-123.25341-213.4733-46.98796-257.5068 46.97562-257.50904 123.24318-213.4792" stroke="#939598" fill="none" stroke-linejoin="round" stroke-linecap="round" stroke-width="6" transform="matrix(.06,0,0,-.06,379.53,369.19)"/>
<path d="M2531 4841 2104 4101" stroke="#939598" fill="none" stroke-linejoin="round" stroke-linecap="round" stroke-width="6" transform="matrix(0,-.06,-.06,-0,744,598)"/>
<path d="M3003 4764 2317 5951 1676 4841" stroke="#000000" fill="none" stroke-linejoin="round" stroke-linecap="round" stroke-width="9" transform="matrix(0,-.06,-.06,-0,744,598)"/>
<path d="M3510 4471H4027" stroke="#000000" fill="none" stroke-linejoin="round" stroke-linecap="round" stroke-width="9" transform="matrix(0,-.06,-.06,-0,744,598)"/>
<path d="M1249 4101H2104" stroke="#000000" fill="none" stroke-linejoin="round" stroke-linecap="round" stroke-width="9" transform="matrix(0,-.06,-.06,-0,744,598)"/>
<path d="M2104 2620H2958" stroke="#000000" fill="none" stroke-linejoin="round" stroke-linecap="round" stroke-width="9" transform="matrix(0,-.06,-.06,-0,744,598)"/>
<path d="M3386 2867 3813 3607" stroke="#000000" fill="none" stroke-linejoin="round" stroke-linecap="round" stroke-width="9" transform="matrix(0,-.06,-.06,-0,744,598)"/>
<path d="M4454 4718 4881 5458" stroke="#000000" fill="none" stroke-linejoin="round" stroke-linecap="round" stroke-width="9" transform="matrix(0,-.06,-.06,-0,744,598)"/>
</g>
</g>
</svg>