<svg xmlns="http://www.w3.org/2000/svg" xmlns:xlink="http://www.w3.org/1999/xlink" version="1.1" width="361pt" height="345pt" viewBox="0 0 361 345">
<defs>
<clipPath id="clip_0">
<path transform="matrix(0,-1,-1,-0,617,364)" d="M19 256H364V617H19Z" fill-rule="evenodd"/>
</clipPath>
<clipPath id="clip_1">
<path transform="matrix(0,-.06,-.06,-0,569,350)" d="M0 0H5520V11593H0V0"/>
</clipPath>
<clipPath id="clip_2">
<path transform="matrix(0,-.06,-.06,-0,569,350)" d="M0 0H5520V11593H0V0"/>
</clipPath>
<clipPath id="clip_3">
<path transform="matrix(0,-.06,-.06,-0,569,350)" d="M0 0H5520V11593H0V0"/>
</clipPath>
</defs>
<g clip-path="url(#clip_0)">
<g clip-path="url(#clip_1)">
<g id="layer_1" data-name="0">
<path transform="matrix(0,-.06,-.06,-0,569,350)" stroke-width="6" stroke-linecap="round" stroke-linejoin="round" fill="none" stroke="#939598" d="M1043 6992 767 6513 1571 5120"/>
<path transform="matrix(0,-.06,-.06,-0,569,350)" stroke-width="6" stroke-linecap="round" stroke-linejoin="round" fill="none" stroke="#939598" d="M1495 7775 1772 8253 2575 6861 1571 5120"/>
<path transform="matrix(0,-.06,-.06,-0,569,350)" stroke-width="6" stroke-linecap="round" stroke-linejoin="round" fill="none" stroke="#939598" d="M767 6513 1043 6992"/>
<path transform="matrix(0,-.06,-.06,-0,569,350)" stroke-width="6" stroke-linecap="round" stroke-linejoin="round" fill="none" stroke="#939598" d="M1495 7775 2299 6382 1847 5599"/>
<path transform="matrix(0,-.06,-.06,-0,569,350)" stroke-width="6" stroke-linecap="round" stroke-linejoin="round" fill="none" stroke="#939598" d="M2299 6382H3053"/>
<path transform="matrix(0,-.06,-.06,-0,569,350)" stroke-width="6" stroke-linecap="round" stroke-linejoin="round" fill="none" stroke="#939598" d="M2048 5599H2601"/>
<path transform="matrix(0,-.06,-.06,-0,569,350)" stroke-width="6" stroke-linecap="round" stroke-linejoin="round" fill="none" stroke="#939598" d="M2249 7775 3053 6382 2601 5599 1797 6992 2249 7775"/>
<path transform="matrix(0,-.06,-.06,-0,569,350)" stroke-width="6" stroke-linecap="round" stroke-linejoin="round" fill="none" stroke="#939598" d="M767 6513H1520"/>
<path transform="matrix(0,-.06,-.06,-0,569,350)" stroke-width="9" stroke-linecap="round" stroke-linejoin="round" fill="none" stroke="#000000" d="M1520 6513 1797 6992"/>
<path transform="matrix(0,-.06,-.06,-0,569,350)" stroke-width="6" stroke-linecap="round" stroke-linejoin="round" fill="none" stroke="#939598" d="M1571 5120H2324L2601 5599"/>
<path transform="matrix(0,-.06,-.06,-0,569,350)" stroke-width="9" stroke-linecap="round" stroke-linejoin="round" fill="none" stroke="#000000" d="M1520 6513 2324 5120"/>
<path transform="matrix(0,-.06,-.06,-0,569,350)" stroke-width="6" stroke-linecap="round" stroke-linejoin="round" fill="none" stroke="#939598" d="M1772 8253H2525"/>
<path transform="matrix(0,-.06,-.06,-0,569,350)" stroke-width="6" stroke-linecap="round" stroke-linejoin="round" fill="none" stroke="#939598" d="M2575 6861H3329L2525 8253"/>
<path transform="matrix(0,-.06,-.06,-0,569,350)" stroke-width="9" stroke-linecap="round" stroke-linejoin="round" fill="none" stroke="#000000" d="M2525 8253 2249 7775"/>
<path transform="matrix(0,-.06,-.06,-0,569,350)" stroke-width="6" stroke-linecap="round" stroke-linejoin="round" fill="none" stroke="#939598" d="M2249 7775 3053 6382 3329 6861"/>
<path transform="matrix(0,-.06,-.06,-0,569,350)" stroke-width="6" stroke-linecap="round" stroke-linejoin="round" fill="none" stroke="#939598" d="M2575 6861H5088"/>
<path transform="matrix(0,-.06,-.06,-0,569,350)" stroke-width="6" stroke-linecap="round" stroke-linejoin="round" fill="none" stroke="#939598" d="M1772 8253H2525"/>
<path transform="matrix(0,-.06,-.06,-0,569,350)" stroke-width="6" stroke-linecap="round" stroke-linejoin="round" fill="none" stroke="#939598" d="M3078 8253H4284L4887 7209"/>
<path transform="matrix(0,-.06,-.06,-0,569,350)" stroke-width="6" stroke-linecap="round" stroke-linejoin="round" fill="none" stroke="#939598" d="M2073 6513H3128"/>
<path transform="matrix(0,-.06,-.06,-0,569,350)" stroke-width="6" stroke-linecap="round" stroke-linejoin="round" fill="none" stroke="#939598" d="M1571 5120H2324"/>
<path transform="matrix(0,-.06,-.06,-0,569,350)" stroke-width="6" stroke-linecap="round" stroke-linejoin="round" fill="none" stroke="#939598" d="M767 6513H1520"/>
<path transform="matrix(0,-.06,-.06,-0,569,350)" stroke-width="6" stroke-linecap="round" stroke-linejoin="round" fill="none" stroke="#939598" d="M2073 6513H3279L3882 5469"/>
<path transform="matrix(0,-.06,-.06,-0,569,350)" stroke-width="9" stroke-linecap="round" stroke-linejoin="round" fill="none" stroke="#000000" d="M4083 5120 5088 6861"/>
<path transform="matrix(0,-.06,-.06,-0,569,350)" stroke-width="6" stroke-linecap="round" stroke-linejoin="round" fill="none" stroke="#939598" d="M4887 7209 4284 8253 3279 6513"/>
<path transform="matrix(0,-.06,-.06,-0,569,350)" stroke-width="6" stroke-linecap="round" stroke-linejoin="round" fill="none" stroke="#939598" d="M3279 6513 3882 5469 3480 6165"/>
<path transform="matrix(0,-.06,-.06,-0,569,350)" stroke-width="6" stroke-linecap="round" stroke-linejoin="round" fill="none" stroke="#939598" d="M3882 5469V7557L2073 6513H4485L3882 7557H2676L3882 5469H2676L1470 7557H3882L5088 5469H3882"/>
<path transform="matrix(0,-.06,-.06,-0,569,350)" stroke-width="9" stroke-linecap="round" stroke-linejoin="round" fill="none" stroke="#000000" d="M2073 6513 2120 6435 2171 6359 2225 6286 2282 6215 2342 6146 2405 6080 2471 6017 2539 5957 2610 5900 2684 5846 2760 5796 2837 5748 2917 5705 2999 5664 3082 5628 3167 5594 3254 5565 3341 5540 3430 5518 3519 5500 3609 5486 3700 5476 3791 5471 3882 5469"/>
<path transform="matrix(0,-.06,-.06,-0,569,350)" stroke-width="6" stroke-linecap="round" stroke-linejoin="round" fill="none" stroke="#939598" d="M3279 6513 3530 6948H2776 3530L4032 7818H3279L2776 6948 3580 5556"/>
<path transform="matrix(0,-.06,-.06,-0,569,350)" stroke-width="6" stroke-linecap="round" stroke-linejoin="round" fill="none" stroke="#939598" d="M3279 7818 3775 6960"/>
<path transform="matrix(0,-.06,-.06,-0,569,350)" stroke-width="6" stroke-linecap="round" stroke-linejoin="round" fill="none" stroke="#939598" d="M4032 7818 4635 6774"/>
<path transform="matrix(0,-.06,-.06,-0,569,350)" stroke-width="6" stroke-linecap="round" stroke-linejoin="round" fill="none" stroke="#939598" d="M3530 6948 4133 5904"/>
<path transform="matrix(0,-.06,-.06,-0,569,350)" stroke-width="6" stroke-linecap="round" stroke-linejoin="round" fill="none" stroke="#939598" d="M3797 5931 3580 5556H4334L4836 6426"/>
<path transform="matrix(0,-.06,-.06,-0,569,350)" stroke-width="9" stroke-linecap="round" stroke-linejoin="round" fill="none" stroke="#000000" d="M4836 6426H4083"/>
<path transform="matrix(0,-.06,-.06,-0,569,350)" stroke-width="6" stroke-linecap="round" stroke-linejoin="round" fill="none" stroke="#939598" d="M3882 7557 4133 7992"/>
<path transform="matrix(0,-.06,-.06,-0,569,350)" stroke-width="9" stroke-linecap="round" stroke-linejoin="round" fill="none" stroke="#000000" d="M2073 6513 2324 6948"/>
<path transform="matrix(0,-.06,-.06,-0,569,350)" stroke-width="6" stroke-linecap="round" stroke-linejoin="round" fill="none" stroke="#939598" d="M2324 6948 2372 6869 2424 6792 2479 6717 2537 6645 2599 6575 2663 6508 2731 6444 2801 6384 2874 6326 2949 6272 3027 6221 3107 6173 3188 6129 3272 6089"/>
<path transform="matrix(0,-.06,-.06,-0,569,350)" stroke-width="9" stroke-linecap="round" stroke-linejoin="round" fill="none" stroke="#000000" d="M3272 6089 3354 6054 3437 6023 3521 5995 3606 5971 3693 5951 3780 5934 3867 5921 3956 5911 4044 5906 4133 5904"/>
<path transform="matrix(0,-.06,-.06,-0,569,350)" stroke-width="9" stroke-linecap="round" stroke-linejoin="round" fill="none" stroke="#000000" d="M2073 6513 3078 8253"/>
<path transform="matrix(0,-.06,-.06,-0,569,350)" stroke-width="6" stroke-linecap="round" stroke-linejoin="round" fill="none" stroke="#939598" d="M3882 7557 4635 8863"/>
<path transform="matrix(0,-.06,-.06,-0,569,350)" stroke-width="6" stroke-linecap="round" stroke-linejoin="round" fill="none" stroke="#939598" d="M4133 5904 4635 6774"/>
<path transform="matrix(0,-.06,-.06,-0,569,350)" stroke-width="9" stroke-linecap="round" stroke-linejoin="round" fill="none" stroke="#000000" d="M2073 6513 2827 7818"/>
<path transform="matrix(0,-.06,-.06,-0,569,350)" stroke-width="6" stroke-linecap="round" stroke-linejoin="round" fill="none" stroke="#939598" d="M2827 7818 2875 7739 2926 7662 2982 7587 3040 7515 3101 7445 3166 7378 3233 7315 3303 7254 3376 7196 3451 7142 3529 7091 3609 7044 3691 7000 3775 6960"/>
<path transform="matrix(0,-.06,-.06,-0,569,350)" stroke-width="9" stroke-linecap="round" stroke-linejoin="round" fill="none" stroke="#000000" d="M3775 6960 3856 6925 3939 6893 4023 6866 4109 6841 4195 6821 4282 6804 4370 6791 4458 6782 4547 6776 4635 6774"/>
<path transform="matrix(0,-.06,-.06,-0,569,350)" stroke-width="6" stroke-linecap="round" stroke-linejoin="round" fill="none" stroke="#939598" d="M3882 7557 4887 9298"/>
<path transform="matrix(0,-.06,-.06,-0,569,350)" stroke-width="6" stroke-linecap="round" stroke-linejoin="round" fill="none" stroke="#939598" d="M4133 5904 4635 6774"/>
<path transform="matrix(0,-.06,-.06,-0,569,350)" stroke-width="9" stroke-linecap="round" stroke-linejoin="round" fill="none" stroke="#000000" d="M3078 8253 3125 8176 3176 8100 3230 8026 3287 7955 3347 7887 3410 7821 3476 7758 3544 7698 3615 7641 3689 7587 3764 7536 3842 7489 3922 7445 4004 7405 4087 7368 4172 7335 4259 7306 4346 7280 4435 7259 4524 7241 4614 7227 4705 7217 4795 7211 4887 7209"/>
<path transform="matrix(0,-.06,-.06,-0,569,350)" stroke-width="9" stroke-linecap="round" stroke-linejoin="round" fill="none" stroke="#000000" d="M3272 6089 3775 6960"/>
<path transform="matrix(0,-.06,-.06,-0,569,350)" stroke-width="9" stroke-linecap="round" stroke-linejoin="round" fill="none" stroke="#000000" d="M1797 6992H1043L1495 7775H2249"/>
<path transform="matrix(0,-.06,-.06,-0,569,350)" stroke-width="9" stroke-linecap="round" stroke-linejoin="round" fill="none" stroke="#000000" d="M2324 5120H4083"/>
<path transform="matrix(0,-.06,-.06,-0,569,350)" stroke-width="9" stroke-linecap="round" stroke-linejoin="round" fill="none" stroke="#000000" d="M2525 8253H3078"/>
<path transform="matrix(0,-.06,-.06,-0,569,350)" stroke-width="9" stroke-linecap="round" stroke-linejoin="round" fill="none" stroke="#000000" d="M1520 6513H2073"/>
<path transform="matrix(0,-.06,-.06,-0,569,350)" stroke-width="9" stroke-linecap="round" stroke-linejoin="round" fill="none" stroke="#000000" d="M3775 6960 4083 6426"/>
<path transform="matrix(0,-.06,-.06,-0,569,350)" stroke-width="9" stroke-linecap="round" stroke-linejoin="round" fill="none" stroke="#000000" d="M5088 6861 4887 7209 4635 6774 4836 6426"/>
<path transform="matrix(0,-.06,-.06,-0,569,350)" stroke-width="9" stroke-linecap="round" stroke-linejoin="round" fill="none" stroke="#000000" d="M4083 5120 3882 5469 4133 5904 4334 5556"/>
<path transform="matrix(0,-.06,-.06,-0,569,350)" stroke-width="9" stroke-linecap="round" stroke-linejoin="round" fill="none" stroke="#000000" d="M3797 5931 4083 6426"/>
<path transform="matrix(0,-.06,-.06,-0,569,350)" stroke-width="9" stroke-linecap="round" stroke-linejoin="round" fill="none" stroke="#000000" d="M2048 5599H1847L1043 6992"/>
<path transform="matrix(0,-.06,-.06,-0,569,350)" stroke-width="4" stroke-linecap="round" stroke-linejoin="round" fill="none" stroke="#939598" d="M4336 5552 4525 5224"/>
<path transform="matrix(0,-.06,-.06,-0,569,350)" stroke-width="4" stroke-linecap="round" stroke-linejoin="round" fill="none" stroke="#939598" d="M4838 6423 5028 6095"/>
<path transform="matrix(0,-.06,-.06,-0,569,350)" stroke-width="4" stroke-linecap="round" stroke-linejoin="round" fill="none" stroke="#939598" d="M4524 5241 4727 5591"/>
<path transform="matrix(0,-.06,-.06,-0,569,350)" stroke-width="4" stroke-linecap="round" stroke-linejoin="round" fill="none" stroke="#939598" d="M5018 6096 4816 5746"/>
<path transform="matrix(0,-.06,-.06,-0,569,350)" d="M4526 5240 4523 5242 4520 5233Z" fill="#939598"/>
<path transform="matrix(0,-.06,-.06,-0,569,350)" stroke-width="0" stroke-linecap="round" stroke-miterlimit="10" stroke-linejoin="miter" fill="none" stroke="#939598" d="M4526 5240 4523 5242 4520 5233Z"/>
<path transform="matrix(0,-.06,-.06,-0,569,350)" d="M5019 6095 5017 6097 5022 6104Z" fill="#939598"/>
<path transform="matrix(0,-.06,-.06,-0,569,350)" stroke-width="0" stroke-linecap="round" stroke-miterlimit="10" stroke-linejoin="miter" fill="none" stroke="#939598" d="M5019 6095 5017 6097 5022 6104Z"/>
</g>
</g>
<g clip-path="url(#clip_2)">
<g id="layer_1" data-name="0">
<text xml:space="preserve" transform="matrix(.06 0 0 .06 569 350)" font-size="140.39" font-family="ArialMT"><tspan y="-4722" x="-5745 -5666.9436">20</tspan></text>
</g>
<g clip-path="url(#clip_3)">
<path transform="matrix(0,-.06,-.06,-0,569,350)" stroke-width="4" stroke-linecap="round" stroke-linejoin="round" fill="none" stroke="#939598" d="M4084 5117 4458 4471"/>
<path transform="matrix(0,-.06,-.06,-0,569,350)" stroke-width="4" stroke-linecap="round" stroke-linejoin="round" fill="none" stroke="#939598" d="M5089 6858 5463 6211"/>
<path transform="matrix(0,-.06,-.06,-0,569,350)" stroke-width="4" stroke-linecap="round" stroke-linejoin="round" fill="none" stroke="#939598" d="M4457 4488 4910 5272"/>
<path transform="matrix(0,-.06,-.06,-0,569,350)" stroke-width="4" stroke-linecap="round" stroke-linejoin="round" fill="none" stroke="#939598" d="M5453 6212 5000 5428"/>
<path transform="matrix(0,-.06,-.06,-0,569,350)" d="M4458 4487 4456 4488 4453 4480Z" fill="#939598"/>
<path transform="matrix(0,-.06,-.06,-0,569,350)" stroke-width="0" stroke-linecap="round" stroke-miterlimit="10" stroke-linejoin="miter" fill="none" stroke="#939598" d="M4458 4487 4456 4488 4453 4480Z"/>
<path transform="matrix(0,-.06,-.06,-0,569,350)" d="M5454 6212 5452 6213 5457 6220Z" fill="#939598"/>
<path transform="matrix(0,-.06,-.06,-0,569,350)" stroke-width="0" stroke-linecap="round" stroke-miterlimit="10" stroke-linejoin="miter" fill="none" stroke="#939598" d="M5454 6212 5452 6213 5457 6220Z"/>
<text xml:space="preserve" transform="matrix(.06 0 0 .06 569 350)" font-size="140.39" font-family="ArialMT"><tspan y="-4906" x="-5426 -5347.9436">40</tspan></text>
<path transform="matrix(0,-.06,-.06,-0,569,350)" stroke-width="4" stroke-linecap="round" stroke-linejoin="round" fill="none" stroke="#939598" d="M3578 5552 3143 4798"/>
<path transform="matrix(0,-.06,-.06,-0,569,350)" stroke-width="4" stroke-linecap="round" stroke-linejoin="round" fill="none" stroke="#939598" d="M4332 5552 3897 4798"/>
<path transform="matrix(0,-.06,-.06,-0,569,350)" stroke-width="4" stroke-linecap="round" stroke-linejoin="round" fill="none" stroke="#939598" d="M3157 4807H3469"/>
<path transform="matrix(0,-.06,-.06,-0,569,350)" stroke-width="4" stroke-linecap="round" stroke-linejoin="round" fill="none" stroke="#939598" d="M3893 4807H3581"/>
<path transform="matrix(0,-.06,-.06,-0,569,350)" d="M3157 4809V4806L3148 4807Z" fill="#939598"/>
<path transform="matrix(0,-.06,-.06,-0,569,350)" stroke-width="0" stroke-linecap="round" stroke-miterlimit="10" stroke-linejoin="miter" fill="none" stroke="#939598" d="M3157 4809V4806L3148 4807Z"/>
<path transform="matrix(0,-.06,-.06,-0,569,350)" d="M3893 4809V4806L3902 4807Z" fill="#939598"/>
<path transform="matrix(0,-.06,-.06,-0,569,350)" stroke-width="0" stroke-linecap="round" stroke-miterlimit="10" stroke-linejoin="miter" fill="none" stroke="#939598" d="M3893 4809V4806L3902 4807Z"/>
<text xml:space="preserve" transform="matrix(.06 0 0 .06 569 350)" font-size="140.39" font-family="ArialMT"><tspan y="-3476" x="-4890 -4811.9436">15</tspan></text>
<path transform="matrix(0,-.06,-.06,-0,569,350)" stroke-width="4" stroke-linecap="round" stroke-linejoin="round" fill="none" stroke="#939598" d="M2322 5117 1796 4205"/>
<path transform="matrix(0,-.06,-.06,-0,569,350)" stroke-width="4" stroke-linecap="round" stroke-linejoin="round" fill="none" stroke="#939598" d="M4081 5117 3554 4205"/>
<path transform="matrix(0,-.06,-.06,-0,569,350)" stroke-width="4" stroke-linecap="round" stroke-linejoin="round" fill="none" stroke="#939598" d="M1810 4214H2624"/>
<path transform="matrix(0,-.06,-.06,-0,569,350)" stroke-width="4" stroke-linecap="round" stroke-linejoin="round" fill="none" stroke="#939598" d="M3550 4214H2736"/>
<path transform="matrix(0,-.06,-.06,-0,569,350)" d="M1810 4215V4212L1801 4214Z" fill="#939598"/>
<path transform="matrix(0,-.06,-.06,-0,569,350)" stroke-width="0" stroke-linecap="round" stroke-miterlimit="10" stroke-linejoin="miter" fill="none" stroke="#939598" d="M1810 4215V4212L1801 4214Z"/>
<path transform="matrix(0,-.06,-.06,-0,569,350)" d="M3550 4215V4212L3559 4214Z" fill="#939598"/>
<path transform="matrix(0,-.06,-.06,-0,569,350)" stroke-width="0" stroke-linecap="round" stroke-miterlimit="10" stroke-linejoin="miter" fill="none" stroke="#939598" d="M3550 4215V4212L3559 4214Z"/>
<text xml:space="preserve" transform="matrix(.06 0 0 .06 569 350)" font-size="140.39" font-family="ArialMT"><tspan y="-2631" x="-4292 -4213.9436">35</tspan></text>
<path transform="matrix(0,-.06,-.06,-0,569,350)" stroke-width="4" stroke-linecap="round" stroke-linejoin="round" fill="none" stroke="#939598" d="M1795 6988 992 5597"/>
<path transform="matrix(0,-.06,-.06,-0,569,350)" stroke-width="4" stroke-linecap="round" stroke-linejoin="round" fill="none" stroke="#939598" d="M1041 6988 238 5597"/>
<path transform="matrix(0,-.06,-.06,-0,569,350)" stroke-width="4" stroke-linecap="round" stroke-linejoin="round" fill="none" stroke="#939598" d="M988 5606H676"/>
<path transform="matrix(0,-.06,-.06,-0,569,350)" stroke-width="4" stroke-linecap="round" stroke-linejoin="round" fill="none" stroke="#939598" d="M252 5606H564"/>
<path transform="matrix(0,-.06,-.06,-0,569,350)" d="M988 5608V5605L997 5606Z" fill="#939598"/>
<path transform="matrix(0,-.06,-.06,-0,569,350)" stroke-width="0" stroke-linecap="round" stroke-miterlimit="10" stroke-linejoin="miter" fill="none" stroke="#939598" d="M988 5608V5605L997 5606Z"/>
<path transform="matrix(0,-.06,-.06,-0,569,350)" d="M252 5608V5605L243 5606Z" fill="#939598"/>
<path transform="matrix(0,-.06,-.06,-0,569,350)" stroke-width="0" stroke-linecap="round" stroke-miterlimit="10" stroke-linejoin="miter" fill="none" stroke="#939598" d="M252 5608V5605L243 5606Z"/>
<text xml:space="preserve" transform="matrix(.06 0 0 .06 569 350)" font-size="140.39" font-family="ArialMT"><tspan y="-571" x="-5689 -5610.9436">15</tspan></text>
<path transform="matrix(0,-.06,-.06,-0,569,350)" stroke-width="4" stroke-linecap="round" stroke-linejoin="round" fill="none" stroke="#939598" d="M1039 6992H530"/>
<path transform="matrix(0,-.06,-.06,-0,569,350)" stroke-width="4" stroke-linecap="round" stroke-linejoin="round" fill="none" stroke="#939598" d="M1492 7775H982"/>
<path transform="matrix(0,-.06,-.06,-0,569,350)" stroke-width="4" stroke-linecap="round" stroke-linejoin="round" fill="none" stroke="#939598" d="M545 6999 725 7311"/>
<path transform="matrix(0,-.06,-.06,-0,569,350)" stroke-width="4" stroke-linecap="round" stroke-linejoin="round" fill="none" stroke="#939598" d="M988 7767 808 7455"/>
<path transform="matrix(0,-.06,-.06,-0,569,350)" d="M546 6999 543 7000 540 6992Z" fill="#939598"/>
<path transform="matrix(0,-.06,-.06,-0,569,350)" stroke-width="0" stroke-linecap="round" stroke-miterlimit="10" stroke-linejoin="miter" fill="none" stroke="#939598" d="M546 6999 543 7000 540 6992Z"/>
<path transform="matrix(0,-.06,-.06,-0,569,350)" d="M989 7766 987 7768 992 7775Z" fill="#939598"/>
<path transform="matrix(0,-.06,-.06,-0,569,350)" stroke-width="0" stroke-linecap="round" stroke-miterlimit="10" stroke-linejoin="miter" fill="none" stroke="#939598" d="M989 7766 987 7768 992 7775Z"/>
<text xml:space="preserve" transform="matrix(.06 0 0 .06 569 350)" font-size="140.39" font-family="ArialMT"><tspan y="-717" x="-7466 -7387.9436">18</tspan></text>
<path transform="matrix(0,-.06,-.06,-0,569,350)" stroke-width="4" stroke-linecap="round" stroke-linejoin="round" fill="none" stroke="#939598" d="M5089 6864 5256 7153"/>
<path transform="matrix(0,-.06,-.06,-0,569,350)" stroke-width="4" stroke-linecap="round" stroke-linejoin="round" fill="none" stroke="#939598" d="M4888 7212 5055 7501"/>
<path transform="matrix(0,-.06,-.06,-0,569,350)" stroke-width="4" stroke-linecap="round" stroke-linejoin="round" fill="none" stroke="#939598" d="M5246 7152 5172 7281"/>
<path transform="matrix(0,-.06,-.06,-0,569,350)" stroke-width="4" stroke-linecap="round" stroke-linejoin="round" fill="none" stroke="#939598" d="M5055 7484 5129 7356"/>
<path transform="matrix(0,-.06,-.06,-0,569,350)" d="M5248 7153 5245 7151 5251 7144Z" fill="#939598"/>
<path transform="matrix(0,-.06,-.06,-0,569,350)" stroke-width="0" stroke-linecap="round" stroke-miterlimit="10" stroke-linejoin="miter" fill="none" stroke="#939598" d="M5248 7153 5245 7151 5251 7144Z"/>
<path transform="matrix(0,-.06,-.06,-0,569,350)" d="M5056 7485 5053 7484 5050 7492Z" fill="#939598"/>
<path transform="matrix(0,-.06,-.06,-0,569,350)" stroke-width="0" stroke-linecap="round" stroke-miterlimit="10" stroke-linejoin="miter" fill="none" stroke="#939598" d="M5056 7485 5053 7484 5050 7492Z"/>
<text xml:space="preserve" transform="matrix(.06 0 0 .06 569 350)" font-size="140.39" font-family="ArialMT"><tspan y="-5101" x="-7357">8</tspan></text>
<path transform="matrix(0,-.06,-.06,-0,569,350)" stroke-width="4" stroke-linecap="round" stroke-linejoin="round" fill="none" stroke="#939598" d="M1518 6510 992 5597"/>
<path transform="matrix(0,-.06,-.06,-0,569,350)" stroke-width="4" stroke-linecap="round" stroke-linejoin="round" fill="none" stroke="#939598" d="M2322 5117 1796 4205"/>
<path transform="matrix(0,-.06,-.06,-0,569,350)" stroke-width="4" stroke-linecap="round" stroke-linejoin="round" fill="none" stroke="#939598" d="M1001 5598 1355 4986"/>
<path transform="matrix(0,-.06,-.06,-0,569,350)" stroke-width="4" stroke-linecap="round" stroke-linejoin="round" fill="none" stroke="#939598" d="M1796 4222 1443 4834"/>
<path transform="matrix(0,-.06,-.06,-0,569,350)" d="M1003 5599 1000 5598 997 5606Z" fill="#939598"/>
<path transform="matrix(0,-.06,-.06,-0,569,350)" stroke-width="0" stroke-linecap="round" stroke-miterlimit="10" stroke-linejoin="miter" fill="none" stroke="#939598" d="M1003 5599 1000 5598 997 5606Z"/>
<path transform="matrix(0,-.06,-.06,-0,569,350)" d="M1798 4222 1795 4221 1801 4214Z" fill="#939598"/>
<path transform="matrix(0,-.06,-.06,-0,569,350)" stroke-width="0" stroke-linecap="round" stroke-miterlimit="10" stroke-linejoin="miter" fill="none" stroke="#939598" d="M1798 4222 1795 4221 1801 4214Z"/>
<text xml:space="preserve" transform="matrix(.06 0 0 .06 569 350)" font-size="140.39" font-family="ArialMT"><tspan y="-1350" x="-4987 -4908.9436">32</tspan></text>
</g>
</g>
</g>
</svg>
