<svg viewBox="66.59067357512953 239.184 505.77202072538864 476.784" version="1.1" xmlns:xlink="http://www.w3.org/1999/xlink" xmlns="http://www.w3.org/2000/svg" style="max-height: 500px" width="505.77202072538864" height="476.784">
<defs>
<clipPath id="clip_0">
<path fill-rule="evenodd" d="M0 0H2550V3300H0Z" transform="matrix(.24,0,0,.24,0,0)"/>
</clipPath>
<clipPath id="clip_1">
<path d="M0 0H2550V3300H0Z" transform="matrix(.24,0,0,.24,0,0)"/>
</clipPath>
<clipPath id="clip_2">
<path d="M0 0H2550V3300H0Z" transform="matrix(.24,0,0,.24,0,0)"/>
</clipPath>
<clipPath id="clip_3">
<path d="M546.26937 2412.123H1395.5798V2909.127H546.26937Z" transform="matrix(.24,0,0,.24,0,0)"/>
</clipPath>
<clipPath id="clip_4">
<path d="M1391.8364 2903.3258 552.2398 2418.592C551.2987 2418.0855 551.00918 2416.8548 551.5159 2415.9136L553.2533 2414.683 1393.791 2899.9234C1394.7322 2900.4302 1395.0217 2901.6607 1394.5149 2902.6016L1392.7776 2903.8323 1391.8364 2903.3258Z" transform="matrix(.24,0,0,.24,0,0)"/>
</clipPath>
<clipPath id="clip_5">
<path d="M0 0H2550V3300H0Z" transform="matrix(.24,0,0,.24,0,0)"/>
</clipPath>
<clipPath id="clip_6">
<path d="M0 0H2550V3300H0Z" transform="matrix(.24,0,0,.24,0,0)"/>
</clipPath>
<clipPath id="clip_7">
<path d="M1389.2887 2493.9085H2093.9019V2909.127H1389.2887Z" transform="matrix(.24,0,0,.24,0,0)"/>
</clipPath>
<clipPath id="clip_8">
<path d="M1392.1985 2900.5025 2086.288 2500.0328C2086.9398 2499.6707 2087.736 2499.8878 2088.098 2500.5394L2088.2427 2501.987 1393.5015 2902.8189C1392.85 2903.181 1392.0537 2902.9639 1391.6917 2902.312L1391.5469 2900.8643 1392.1985 2900.5025Z" transform="matrix(.24,0,0,.24,0,0)"/>
</clipPath>
<clipPath id="clip_9">
<path d="M0 0H2550V3300H0Z" transform="matrix(.24,0,0,.24,0,0)"/>
</clipPath>
<clipPath id="clip_10">
<path d="M0 0H2550V3300H0Z" transform="matrix(.24,0,0,.24,0,0)"/>
</clipPath>
<clipPath id="clip_11">
<path d="M967.77908 2651.188H1395.5798V2909.127H967.77908Z" transform="matrix(.24,0,0,.24,0,0)"/>
</clipPath>
<clipPath id="clip_12">
<path d="M1391.8364 2903.3258 971.821 2660.959C970.8799 2660.4522 970.59036 2659.2215 971.09707 2658.2803L972.8345 2657.0499 1393.791 2899.9234C1394.7322 2900.4302 1395.0217 2901.6607 1394.5149 2902.6016L1392.7776 2903.8323 1391.8364 2903.3258Z" transform="matrix(.24,0,0,.24,0,0)"/>
</clipPath>
<clipPath id="clip_13">
<path d="M0 0H2550V3300H0Z" transform="matrix(.24,0,0,.24,0,0)"/>
</clipPath>
<clipPath id="clip_14">
<path d="M0 0H2550V3300H0Z" transform="matrix(.24,0,0,.24,0,0)"/>
</clipPath>
<clipPath id="clip_15">
<path d="M967.77908 1682.345H1395.5798V2909.127H967.77908Z" transform="matrix(.24,0,0,.24,0,0)"/>
</clipPath>
<clipPath id="clip_16">
<path d="M971.53146 2659.294V1689.8269C971.53146 1689.3926 971.74856 1688.9583 972.183 1688.6687L973.05166 1688.4514 1186.3169 1811.5894C1186.679 1811.8065 1186.8961 1812.0962 1186.9685 1812.458L1394.1531 2901.371C1394.2979 2902.095 1393.791 2902.7467 1393.1394 2902.8914L1391.764 2902.5294 1185.0139 1813.8335 972.183 1690.9129 972.8345 1689.7544H974.1375V2659.294C974.1375 2660.0179 973.55838 2660.597 972.8345 2660.597L971.53146 2660.0179V2659.294Z" transform="matrix(.24,0,0,.24,0,0)"/>
</clipPath>
<clipPath id="clip_17">
<path d="M0 0H2550V3300H0Z" transform="matrix(.24,0,0,.24,0,0)"/>
</clipPath>
<clipPath id="clip_18">
<path d="M0 0H2550V3300H0Z" transform="matrix(.24,0,0,.24,0,0)"/>
</clipPath>
<clipPath id="clip_19">
<path d="M546.26937 1562.8124H1326.3768V2418.414H546.26937Z" transform="matrix(.24,0,0,.24,0,0)"/>
</clipPath>
<clipPath id="clip_20">
<path d="M1320.5309 1736.5193 1186.3169 1813.8335C1185.8826 1814.0507 1185.4483 1814.0507 1185.0139 1813.8335L759.78628 1568.4263 760.4378 1567.2681 761.66848 1567.5576 554.48397 2417.2169C554.3392 2417.9405 553.61526 2418.375 552.89138 2418.1578L551.8055 2417.289 759.13479 1566.9785C759.20718 1566.5442 759.4967 1566.2546 759.85867 1566.1099L760.65499 1565.965 1186.3169 1811.5894 1185.6655 1812.7476 1185.0139 1811.5894 1319.2278 1734.2753C1319.8794 1733.9133 1320.6755 1734.1305 1321.0376 1734.782L1321.1824 1736.2297 1320.5309 1736.5193Z" transform="matrix(.24,0,0,.24,0,0)"/>
</clipPath>
<clipPath id="clip_21">
<path d="M0 0H2550V3300H0Z" transform="matrix(.24,0,0,.24,0,0)"/>
</clipPath>
<clipPath id="clip_22">
<path d="M0 0H2550V3300H0Z" transform="matrix(.24,0,0,.24,0,0)"/>
</clipPath>
<clipPath id="clip_23">
<path d="M1741.5952 1405.5327H1886.2927V1493.6094H1741.5952Z" transform="matrix(.24,0,0,.24,0,0)"/>
</clipPath>
<clipPath id="clip_24">
<path d="M1744.8899 1488.4337 1879.1038 1411.1196C1879.7551 1410.7576 1880.5515 1410.9749 1880.9133 1411.6264L1881.0584 1413.0742 1746.1929 1490.6779C1745.5413 1491.0398 1744.7451 1490.8226 1744.383 1490.1712L1744.2383 1488.7233 1744.8899 1488.4337Z" transform="matrix(.24,0,0,.24,0,0)"/>
</clipPath>
<clipPath id="clip_25">
<path d="M0 0H2550V3300H0Z" transform="matrix(.24,0,0,.24,0,0)"/>
</clipPath>
<clipPath id="clip_26">
<path d="M0 0H2550V3300H0Z" transform="matrix(.24,0,0,.24,0,0)"/>
</clipPath>
<clipPath id="clip_27">
<path d="M1389.2887 2493.9085H2093.9019V2909.127H1389.2887Z" transform="matrix(.24,0,0,.24,0,0)"/>
</clipPath>
<clipPath id="clip_28">
<path d="M1391.8364 2899.9234 2085.9263 2499.4534C2086.8675 2498.9468 2088.0255 2499.2364 2088.6048 2500.1773L2088.8218 2502.2769 1393.791 2903.2535C1392.85 2903.7598 1391.6917 2903.4705 1391.1126 2902.5294L1390.8954 2900.4302 1391.8364 2899.9234Z" transform="matrix(.24,0,0,.24,0,0)"/>
</clipPath>
<clipPath id="clip_29">
<path d="M0 0H2550V3300H0Z" transform="matrix(.24,0,0,.24,0,0)"/>
</clipPath>
<clipPath id="clip_30">
<path d="M0 0H2550V3300H0Z" transform="matrix(.24,0,0,.24,0,0)"/>
</clipPath>
<clipPath id="clip_31">
<path d="M1873.7102 1405.5327H2056.1549V2330.3375H1873.7102Z" transform="matrix(.24,0,0,.24,0,0)"/>
</clipPath>
<clipPath id="clip_32">
<path d="M2052.1917 2327.234 1878.4522 1412.495C1878.3074 1411.7711 1878.8142 1411.1196 1879.4656 1410.9749L1880.8411 1411.3368 2054.7257 2326.7999C2054.8704 2327.5238 2054.3636 2328.1754 2053.712 2328.3199L2052.3365 2327.958 2052.1917 2327.234Z" transform="matrix(.24,0,0,.24,0,0)"/>
</clipPath>
<clipPath id="clip_33">
<path d="M0 0H2550V3300H0Z" transform="matrix(.24,0,0,.24,0,0)"/>
</clipPath>
<clipPath id="clip_34">
<path d="M0 0H2550V3300H0Z" transform="matrix(.24,0,0,.24,0,0)"/>
</clipPath>
<clipPath id="clip_35">
<path d="M753.8786 1487.3181H898.5759V1569.1035H753.8786Z" transform="matrix(.24,0,0,.24,0,0)"/>
</clipPath>
<clipPath id="clip_36">
<path d="M759.78628 1566.1821 894.0001 1488.4337C894.6516 1488.0718 895.44796 1488.289 895.8099 1488.9404L895.9547 1490.3883 761.0893 1568.4263C760.4378 1568.7883 759.6415 1568.571 759.27957 1567.9196L759.13479 1566.4718 759.78628 1566.1821Z" transform="matrix(.24,0,0,.24,0,0)"/>
</clipPath>
<clipPath id="clip_37">
<path d="M0 0H2550V3300H0Z" transform="matrix(.24,0,0,.24,0,0)"/>
</clipPath>
<clipPath id="clip_38">
<path d="M0 0H2550V3300H0Z" transform="matrix(.24,0,0,.24,0,0)"/>
</clipPath>
<clipPath id="clip_39">
<path d="M1313.7944 1160.1763H1886.2927V1418.115H1313.7944Z" transform="matrix(.24,0,0,.24,0,0)"/>
</clipPath>
<clipPath id="clip_40">
<path d="M1319.2278 1243.0265 1453.876 1165.2781C1454.3103 1165.0609 1454.7446 1165.0609 1455.1791 1165.2781L1880.4067 1411.1196C1881.0584 1411.4816 1881.2754 1412.2778 1880.9133 1412.9295L1879.7551 1413.7981 1453.876 1167.5222 1454.5276 1166.3639 1455.1791 1167.5222 1320.5309 1245.2706C1319.8794 1245.6326 1319.083 1245.4154 1318.7211 1244.7639L1318.5763 1243.316 1319.2278 1243.0265Z" transform="matrix(.24,0,0,.24,0,0)"/>
</clipPath>
<clipPath id="clip_41">
<path d="M0 0H2550V3300H0Z" transform="matrix(.24,0,0,.24,0,0)"/>
</clipPath>
<clipPath id="clip_42">
<path d="M0 0H2550V3300H0Z" transform="matrix(.24,0,0,.24,0,0)"/>
</clipPath>
<clipPath id="clip_43">
<path d="M967.77908 2500.1998H980.36148V2663.7706H967.77908Z" transform="matrix(.24,0,0,.24,0,0)"/>
</clipPath>
<clipPath id="clip_44">
<path d="M971.53146 2659.294V2504.2315C971.53146 2503.5074 972.1105 2502.9283 972.8345 2502.9283L974.1375 2503.5074V2659.294C974.1375 2660.0179 973.55838 2660.597 972.8345 2660.597L971.53146 2660.0179V2659.294Z" transform="matrix(.24,0,0,.24,0,0)"/>
</clipPath>
<clipPath id="clip_45">
<path d="M0 0H2550V3300H0Z" transform="matrix(.24,0,0,.24,0,0)"/>
</clipPath>
<clipPath id="clip_46">
<path d="M0 0H2550V3300H0Z" transform="matrix(.24,0,0,.24,0,0)"/>
</clipPath>
<clipPath id="clip_47">
<path d="M967.77908 2500.1998H1364.124V2732.9737H967.77908Z" transform="matrix(.24,0,0,.24,0,0)"/>
</clipPath>
<clipPath id="clip_48">
<path d="M973.7755 2502.494 1360.3462 2725.7493C1361.2874 2726.2559 1361.5768 2727.4869 1361.0701 2728.4278L1359.3328 2729.6585 971.821 2505.8963C970.8799 2505.3897 970.59036 2504.159 971.09707 2503.2178L972.8345 2501.987 973.7755 2502.494Z" transform="matrix(.24,0,0,.24,0,0)"/>
</clipPath>
<clipPath id="clip_49">
<path d="M0 0H2550V3300H0Z" transform="matrix(.24,0,0,.24,0,0)"/>
</clipPath>
<clipPath id="clip_50">
<path d="M0 0H2550V3300H0Z" transform="matrix(.24,0,0,.24,0,0)"/>
</clipPath>
<clipPath id="clip_51">
<path d="M1489.9478 2399.5406H1924.0398V2657.4796H1489.9478Z" transform="matrix(.24,0,0,.24,0,0)"/>
</clipPath>
<clipPath id="clip_52">
<path d="M1493.4019 2649.0142 1918.6294 2403.1729C1919.281 2402.8109 1920.0774 2403.0279 1920.4392 2403.6798L1920.584 2405.1275 1494.7048 2651.3309C1494.0532 2651.6929 1493.2571 2651.4757 1492.895 2650.8243L1492.7503 2649.3763 1493.4019 2649.0142Z" transform="matrix(.24,0,0,.24,0,0)"/>
</clipPath>
<clipPath id="clip_53">
<path d="M0 0H2550V3300H0Z" transform="matrix(.24,0,0,.24,0,0)"/>
</clipPath>
<clipPath id="clip_54">
<path d="M0 0H2550V3300H0Z" transform="matrix(.24,0,0,.24,0,0)"/>
</clipPath>
<clipPath id="clip_55">
<path d="M1181.6795 1732.6746H1326.3768V1814.46H1181.6795Z" transform="matrix(.24,0,0,.24,0,0)"/>
</clipPath>
<clipPath id="clip_56">
<path d="M1185.0139 1811.5894 1319.2278 1734.2753C1319.8794 1733.9133 1320.6755 1734.1305 1321.0376 1734.782L1321.1824 1736.2297 1186.3169 1813.8335C1185.6655 1814.1956 1184.8692 1813.9783 1184.5072 1813.3268L1184.3624 1811.8789 1185.0139 1811.5894Z" transform="matrix(.24,0,0,.24,0,0)"/>
</clipPath>
<clipPath id="clip_57">
<path d="M0 0H2550V3300H0Z" transform="matrix(.24,0,0,.24,0,0)"/>
</clipPath>
<clipPath id="clip_58">
<path d="M0 0H2550V3300H0Z" transform="matrix(.24,0,0,.24,0,0)"/>
</clipPath>
<clipPath id="clip_59">
<path d="M1313.7944 1732.6746H1496.239V2657.4796H1313.7944Z" transform="matrix(.24,0,0,.24,0,0)"/>
</clipPath>
<clipPath id="clip_60">
<path d="M1321.7615 1735.0715 1495.9356 2649.8106C1496.1526 2650.8966 1495.4287 2651.91 1494.4153 2652.1273L1492.3159 2651.6204 1317.9248 1735.7954C1317.7075 1734.7096 1318.4314 1733.696 1319.445 1733.479L1321.5443 1733.9857 1321.7615 1735.0715Z" transform="matrix(.24,0,0,.24,0,0)"/>
</clipPath>
<clipPath id="clip_61">
<path d="M0 0H2550V3300H0Z" transform="matrix(.24,0,0,.24,0,0)"/>
</clipPath>
<clipPath id="clip_62">
<path d="M0 0H2550V3300H0Z" transform="matrix(.24,0,0,.24,0,0)"/>
</clipPath>
<clipPath id="clip_63">
<path d="M1741.5952 1405.5327H1886.2927V1493.6094H1741.5952Z" transform="matrix(.24,0,0,.24,0,0)"/>
</clipPath>
<clipPath id="clip_64">
<path d="M1880.4067 1413.3638 1746.1929 1490.6779C1745.5413 1491.0398 1744.7451 1490.8226 1744.383 1490.1712L1744.2383 1488.7233 1879.1038 1411.0473C1879.7551 1410.6853 1880.5515 1410.9024 1880.9133 1411.554L1881.0584 1413.0017 1880.4067 1413.3638Z" transform="matrix(.24,0,0,.24,0,0)"/>
</clipPath>
<clipPath id="clip_65">
<path d="M0 0H2550V3300H0Z" transform="matrix(.24,0,0,.24,0,0)"/>
</clipPath>
<clipPath id="clip_66">
<path d="M0 0H2550V3300H0Z" transform="matrix(.24,0,0,.24,0,0)"/>
</clipPath>
<clipPath id="clip_67">
<path d="M1741.5952 1487.3181H1924.0398V2412.123H1741.5952Z" transform="matrix(.24,0,0,.24,0,0)"/>
</clipPath>
<clipPath id="clip_68">
<path d="M1747.4236 1489.23 1921.1631 2403.969C1921.3804 2405.055 1920.6565 2406.0684 1919.6428 2406.2857L1917.5435 2405.7789 1743.5867 1489.9539C1743.3696 1488.868 1744.0935 1487.8546 1745.1069 1487.6375L1747.2063 1488.1442 1747.4236 1489.23Z" transform="matrix(.24,0,0,.24,0,0)"/>
</clipPath>
<clipPath id="clip_69">
<path d="M0 0H2550V3300H0Z" transform="matrix(.24,0,0,.24,0,0)"/>
</clipPath>
<clipPath id="clip_70">
<path d="M0 0H2550V3300H0Z" transform="matrix(.24,0,0,.24,0,0)"/>
</clipPath>
<clipPath id="clip_71">
<path d="M753.8786 1487.3181H898.5759V1569.1035H753.8786Z" transform="matrix(.24,0,0,.24,0,0)"/>
</clipPath>
<clipPath id="clip_72">
<path d="M759.78628 1566.1821 894.0001 1488.4337C894.6516 1488.0718 895.44796 1488.289 895.8099 1488.9404L895.9547 1490.3883 761.0893 1568.4263C760.4378 1568.7883 759.6415 1568.571 759.27957 1567.9196L759.13479 1566.4718 759.78628 1566.1821Z" transform="matrix(.24,0,0,.24,0,0)"/>
</clipPath>
<clipPath id="clip_73">
<path d="M0 0H2550V3300H0Z" transform="matrix(.24,0,0,.24,0,0)"/>
</clipPath>
<clipPath id="clip_74">
<path d="M0 0H2550V3300H0Z" transform="matrix(.24,0,0,.24,0,0)"/>
</clipPath>
<clipPath id="clip_75">
<path d="M892.2848 1487.3181H1326.3768V1738.9657H892.2848Z" transform="matrix(.24,0,0,.24,0,0)"/>
</clipPath>
<clipPath id="clip_76">
<path d="M895.5927 1487.8546 1320.8203 1733.696C1321.7615 1734.2029 1322.051 1735.4336 1321.5443 1736.3746L1319.8069 1737.6052 893.6382 1491.257C892.6971 1490.7503 892.4075 1489.5195 892.91427 1488.5785L894.6516 1487.3479 895.5927 1487.8546Z" transform="matrix(.24,0,0,.24,0,0)"/>
</clipPath>
<clipPath id="clip_77">
<path d="M0 0H2550V3300H0Z" transform="matrix(.24,0,0,.24,0,0)"/>
</clipPath>
<clipPath id="clip_78">
<path d="M0 0H2550V3300H0Z" transform="matrix(.24,0,0,.24,0,0)"/>
</clipPath>
<clipPath id="clip_79">
<path d="M1313.7944 1160.1763H1458.4918V1248.2529H1313.7944Z" transform="matrix(.24,0,0,.24,0,0)"/>
</clipPath>
<clipPath id="clip_80">
<path d="M1455.1791 1167.5222 1320.5309 1245.2706C1319.8794 1245.6326 1319.083 1245.4154 1318.7211 1244.7639L1318.5763 1243.316 1453.876 1165.2781C1454.5276 1164.9161 1455.3239 1165.1333 1455.6858 1165.7848L1455.8306 1167.2327 1455.1791 1167.5222Z" transform="matrix(.24,0,0,.24,0,0)"/>
</clipPath>
<clipPath id="clip_81">
<path d="M0 0H2550V3300H0Z" transform="matrix(.24,0,0,.24,0,0)"/>
</clipPath>
<clipPath id="clip_82">
<path d="M0 0H2550V3300H0Z" transform="matrix(.24,0,0,.24,0,0)"/>
</clipPath>
<clipPath id="clip_83">
<path d="M1313.7944 1235.6705H1747.8865V1493.6094H1313.7944Z" transform="matrix(.24,0,0,.24,0,0)"/>
</clipPath>
<clipPath id="clip_84">
<path d="M1320.8203 1242.4474 1746.4824 1487.8546C1747.4236 1488.3613 1747.7131 1489.592 1747.2063 1490.5331L1745.469 1491.7637 1318.8657 1245.8499C1317.9248 1245.343 1317.6353 1244.1124 1318.1419 1243.1713L1319.8794 1241.9407 1320.8203 1242.4474Z" transform="matrix(.24,0,0,.24,0,0)"/>
</clipPath>
<clipPath id="clip_85">
<path d="M0 0H2550V3300H0Z" transform="matrix(.24,0,0,.24,0,0)"/>
</clipPath>
<clipPath id="clip_86">
<path d="M0 0H2550V3300H0Z" transform="matrix(.24,0,0,.24,0,0)"/>
</clipPath>
<clipPath id="clip_87">
<path d="M584.0165 2198.2227H1496.239V2657.4796H584.0165Z" transform="matrix(.24,0,0,.24,0,0)"/>
</clipPath>
<clipPath id="clip_88">
<path d="M971.821 2505.8963 585.25039 2282.641C584.6712 2282.2789 584.2369 2281.6275 584.30929 2280.9759L584.6712 2279.6007 719.4642 2201.9244C720.04336 2201.5626 720.83969 2201.5626 721.41879 2201.9244L1494.9944 2648.435C1495.9356 2648.942 1496.2251 2650.1727 1495.7183 2651.1138L1493.981 2652.3443 719.4642 2205.3267 720.4053 2203.6617 721.3464 2205.3267 587.2049 2282.641 586.2638 2280.9759 587.27737 2279.3109 973.84799 2502.5665C974.78909 2503.073 975.0786 2504.3038 974.57186 2505.2447L972.8345 2506.4757 971.821 2505.8963Z" transform="matrix(.24,0,0,.24,0,0)"/>
</clipPath>
<clipPath id="clip_89">
<path d="M0 0H2550V3300H0Z" transform="matrix(.24,0,0,.24,0,0)"/>
</clipPath>
<clipPath id="clip_90">
<path d="M0 0H2550V3300H0Z" transform="matrix(.24,0,0,.24,0,0)"/>
</clipPath>
<clipPath id="clip_91">
<path d="M716.1315 1487.3181H898.5759V2210.805H716.1315Z" transform="matrix(.24,0,0,.24,0,0)"/>
</clipPath>
<clipPath id="clip_92">
<path d="M718.59548 2203.155 892.7694 1489.0852C893.059 1488.0718 894.0725 1487.4202 895.1584 1487.6375L896.82339 1488.9404 722.35989 2204.0238C722.0703 2205.037 721.0568 2205.6888 719.97097 2205.4718L718.3059 2204.1685 718.59548 2203.155Z" transform="matrix(.24,0,0,.24,0,0)"/>
</clipPath>
<clipPath id="clip_93">
<path d="M0 0H2550V3300H0Z" transform="matrix(.24,0,0,.24,0,0)"/>
</clipPath>
<clipPath id="clip_94">
<path d="M0 0H2550V3300H0Z" transform="matrix(.24,0,0,.24,0,0)"/>
</clipPath>
<clipPath id="clip_95">
<path d="M1489.9478 1606.8507H1710.1394V2657.4796H1489.9478Z" transform="matrix(.24,0,0,.24,0,0)"/>
</clipPath>
<clipPath id="clip_96">
<path d="M1493.4019 2649.0142 1705.7984 2526.0936 1706.45 2527.252 1705.147 2527.469 1531.4074 1612.73C1531.2625 1612.006 1531.7693 1611.3545 1532.4208 1611.2097L1533.7962 1611.5717 1707.6807 2527.0347C1707.7529 2527.6138 1707.5359 2528.1207 1707.029 2528.4102L1494.6325 2651.3309C1493.981 2651.6929 1493.1846 2651.4757 1492.8226 2650.8243L1492.6779 2649.3763 1493.4019 2649.0142Z" transform="matrix(.24,0,0,.24,0,0)"/>
</clipPath>
<clipPath id="clip_97">
<path d="M0 0H2550V3300H0Z" transform="matrix(.24,0,0,.24,0,0)"/>
</clipPath>
<clipPath id="clip_98">
<path d="M0 0H2550V3300H0Z" transform="matrix(.24,0,0,.24,0,0)"/>
</clipPath>
<clipPath id="clip_99">
<path d="M967.77908 1858.4983H1968.0781V2663.7706H967.77908Z" transform="matrix(.24,0,0,.24,0,0)"/>
</clipPath>
<clipPath id="clip_100">
<path d="M971.53146 2659.294V2090.731C971.53146 2090.2967 971.74856 2089.8624 972.183 2089.5728L973.05166 2089.3555 1271.8838 2261.575 1271.2322 2262.7332 1270.5808 2261.575 1964.6704 1861.1052C1965.322 1860.7432 1966.1182 1860.9605 1966.4802 1861.6119L1966.625 1863.0597 1271.8838 2263.8917C1271.4495 2264.1087 1271.0151 2264.1087 1270.5808 2263.8917L972.183 2091.817 972.8345 2090.6588H974.1375V2659.2215C974.1375 2659.9454 973.55838 2660.5245 972.8345 2660.5245L971.53146 2659.9454V2659.294Z" transform="matrix(.24,0,0,.24,0,0)"/>
</clipPath>
<clipPath id="clip_101">
<path d="M0 0H2550V3300H0Z" transform="matrix(.24,0,0,.24,0,0)"/>
</clipPath>
<clipPath id="clip_102">
<path d="M0 0H2550V3300H0Z" transform="matrix(.24,0,0,.24,0,0)"/>
</clipPath>
<clipPath id="clip_103">
<path d="M1584.3157 1902.5366H1653.5186V2223.3873H1584.3157Z" transform="matrix(.24,0,0,.24,0,0)"/>
</clipPath>
<clipPath id="clip_104">
<path d="M1647.3784 2221.6873 1587.0039 1904.1781C1586.8591 1903.4541 1587.366 1902.8027 1588.0176 1902.658L1589.3928 1903.0198 1619.5078 2062.2813 1618.2048 2062.4984 1619.5078 2062.2813 1649.9121 2221.253C1650.0569 2221.9769 1649.5503 2222.6285 1648.8987 2222.773L1647.5232 2222.4112 1647.3784 2221.6873Z" transform="matrix(.24,0,0,.24,0,0)"/>
</clipPath>
<clipPath id="clip_105">
<path d="M0 0H2550V3300H0Z" transform="matrix(.24,0,0,.24,0,0)"/>
</clipPath>
<clipPath id="clip_106">
<path d="M0 0H2550V3300H0Z" transform="matrix(.24,0,0,.24,0,0)"/>
</clipPath>
<clipPath id="clip_107">
<path d="M1584.3157 1820.7512H1791.9248V2147.893H1584.3157Z" transform="matrix(.24,0,0,.24,0,0)"/>
</clipPath>
<clipPath id="clip_108">
<path d="M1787.2388 2140.8985 1726.8643 1823.3892 1728.1675 1823.172 1728.8189 1824.3303 1588.9585 1905.1192 1588.3069 1903.9609 1589.6101 1903.7438 1619.5801 2062.2813 1618.2771 2062.4984 1617.6255 2061.34 1757.4861 1980.5512C1758.1375 1980.1892 1758.9338 1980.4064 1759.2957 1981.0579L1759.4407 1982.5057 1618.9287 2063.6566C1618.5667 2063.8739 1618.1323 2063.8739 1617.698 2063.729L1617.0464 2063.2222 1587.0039 1904.2505C1586.9317 1903.6714 1587.1487 1903.1646 1587.6555 1902.875L1727.5159 1822.0862C1727.8777 1821.8689 1728.3123 1821.8689 1728.6741 1822.0137L1729.3257 1822.5205 1789.7727 2140.4639C1789.9172 2141.188 1789.4107 2141.8394 1788.759 2141.9844L1787.3836 2141.6224 1787.2388 2140.8985Z" transform="matrix(.24,0,0,.24,0,0)"/>
</clipPath>
<clipPath id="clip_109">
<path d="M0 0H2550V3300H0Z" transform="matrix(.24,0,0,.24,0,0)"/>
</clipPath>
<clipPath id="clip_110">
<path d="M0 0H2550V3300H0Z" transform="matrix(.24,0,0,.24,0,0)"/>
</clipPath>
<clipPath id="clip_111">
<path d="M1445.9094 1902.5366H1590.6067V1990.6133H1445.9094Z" transform="matrix(.24,0,0,.24,0,0)"/>
</clipPath>
<clipPath id="clip_112">
<path d="M1588.9585 1905.0469 1448.6638 1985.8357C1448.0123 1986.1978 1447.2161 1985.9805 1446.854 1985.329L1446.7092 1983.8811 1587.6555 1902.7302C1588.3069 1902.3684 1589.1033 1902.5855 1589.4653 1903.237L1589.6101 1904.6848 1588.9585 1905.0469Z" transform="matrix(.24,0,0,.24,0,0)"/>
</clipPath>
<clipPath id="clip_113">
<path d="M0 0H2550V3300H0Z" transform="matrix(.24,0,0,.24,0,0)"/>
</clipPath>
<clipPath id="clip_114">
<path d="M0 0H2550V3300H0Z" transform="matrix(.24,0,0,.24,0,0)"/>
</clipPath>
<clipPath id="clip_115">
<path d="M1445.9094 1978.0309H1791.9248V2305.1729H1445.9094Z" transform="matrix(.24,0,0,.24,0,0)"/>
</clipPath>
<clipPath id="clip_116">
<path d="M1619.5801 2062.2088 1649.9846 2221.1807 1648.6817 2221.3978 1648.03 2220.2396 1787.8904 2139.4505 1789.1934 2141.6947 1509.0383 2303.2725C1508.6763 2303.4898 1508.242 2303.4898 1507.8801 2303.3448L1507.2285 2302.8382 1446.7816 1984.8947C1446.637 1984.3156 1446.9988 1983.7363 1447.5056 1983.4468L1448.6638 1983.302 1649.6951 2220.4566 1647.7405 2222.1217 1447.0712 1985.4014C1446.7092 1985.0394 1446.637 1984.4603 1446.854 1984.0259L1447.5056 1983.302 1758.1375 1980.2615C1758.8613 1980.2615 1759.4407 1980.8407 1759.4407 1981.5646L1758.8613 1982.8677 1448.0123 1985.9082V1984.605L1449.0258 1983.7363 1649.6951 2220.4566C1650.1294 2221.0357 1650.0569 2221.832 1649.5503 2222.2664L1648.1748 2222.6285 1447.0712 1985.329 1448.0847 1984.4603 1449.3877 1984.2432 1509.7622 2301.7525 1508.4592 2301.9696 1507.8076 2300.811 1787.9629 2139.2335C1788.6143 2138.8714 1789.4107 2139.0885 1789.7727 2139.74L1789.9172 2141.188 1649.4055 2222.3389C1649.0435 2222.556 1648.6091 2222.556 1648.2471 2222.4112L1647.5957 2221.9044 1617.1189 2062.4984C1616.9741 2061.7745 1617.4807 2061.123 1618.1323 2060.978L1619.5078 2061.34 1619.5801 2062.2088Z" transform="matrix(.24,0,0,.24,0,0)"/>
</clipPath>
<clipPath id="clip_117">
<path d="M0 0H2550V3300H0Z" transform="matrix(.24,0,0,.24,0,0)"/>
</clipPath>
<clipPath id="clip_118">
<path d="M0 0H2550V3300H0Z" transform="matrix(.24,0,0,.24,0,0)"/>
</clipPath>
<clipPath id="clip_119">
<path d="M1471.0742 1902.5366H1791.9248V2147.893H1471.0742Z" transform="matrix(.24,0,0,.24,0,0)"/>
</clipPath>
<clipPath id="clip_120">
<path d="M1478.4168 2141.9844 1788.542 2139.3782V2140.6812L1787.5283 2141.5499 1587.2935 1904.8296C1586.8591 1904.2505 1586.9317 1903.4541 1587.4382 1903.0198L1588.8137 1902.658 1789.4829 2139.9573C1789.845 2140.3194 1789.9172 2140.8985 1789.7002 2141.3328L1789.0486 2142.0567 1478.4168 2144.6627C1477.6929 2144.6627 1477.1137 2144.0836 1477.1137 2143.3597L1477.6929 2142.0567 1478.4168 2141.9844Z" transform="matrix(.24,0,0,.24,0,0)"/>
</clipPath>
<clipPath id="clip_121">
<path d="M0 0H2550V3300H0Z" transform="matrix(.24,0,0,.24,0,0)"/>
</clipPath>
<clipPath id="clip_122">
<path d="M0 0H2550V3300H0Z" transform="matrix(.24,0,0,.24,0,0)"/>
</clipPath>
<clipPath id="clip_123">
<path d="M1584.3157 1871.0807H1760.469V1984.322H1584.3157Z" transform="matrix(.24,0,0,.24,0,0)"/>
</clipPath>
<clipPath id="clip_124">
<path d="M1755.7485 1981.4198C1755.3865 1942.1837 1732.366 1906.7118 1696.677 1890.3513L1697.4734 1888.5415 1696.677 1890.3513C1660.988 1873.9909 1619.0735 1879.7822 1589.1758 1905.1192L1587.1487 1905.6983 1585.8457 1902.8027 1586.6421 1902.0787C1617.7703 1875.7283 1661.2776 1869.7922 1698.342 1886.7317 1735.4065 1903.6714 1759.2957 1940.5911 1759.6577 1981.3474L1758.7891 1983.302 1755.7485 1982.4334V1981.4198Z" transform="matrix(.24,0,0,.24,0,0)"/>
</clipPath>
<clipPath id="clip_125">
<path d="M0 0H2550V3300H0Z" transform="matrix(.24,0,0,.24,0,0)"/>
</clipPath>
<clipPath id="clip_126">
<path d="M0 0H2550V3300H0Z" transform="matrix(.24,0,0,.24,0,0)"/>
</clipPath>
<clipPath id="clip_127">
<path d="M1471.0742 2135.3106H1653.5186V2248.552H1471.0742Z" transform="matrix(.24,0,0,.24,0,0)"/>
</clipPath>
<clipPath id="clip_128">
<path d="M1480.3713 2143.07C1480.7333 2182.3062 1503.7538 2217.778 1539.4429 2234.1387L1538.6465 2235.9483 1539.4429 2234.1387C1575.1318 2250.499 1617.0464 2244.7078 1646.9441 2219.3707L1648.971 2218.7916 1650.2742 2221.6873 1649.4778 2222.4112C1618.3496 2248.7618 1574.8423 2254.6978 1537.7777 2237.7584 1500.7134 2220.8184 1476.8242 2183.899 1476.4622 2143.1427L1477.3308 2141.188 1480.3713 2142.0567V2143.07Z" transform="matrix(.24,0,0,.24,0,0)"/>
</clipPath>
<clipPath id="clip_129">
<path d="M0 0H2550V3300H0Z" transform="matrix(.24,0,0,.24,0,0)"/>
</clipPath>
<clipPath id="clip_130">
<path d="M0 0H2550V3300H0Z" transform="matrix(.24,0,0,.24,0,0)"/>
</clipPath>
<clipPath id="clip_131">
<path d="M1640.9363 1978.0309H1760.469V2223.3873H1640.9363Z" transform="matrix(.24,0,0,.24,0,0)"/>
</clipPath>
<clipPath id="clip_132">
<path d="M1646.727 2219.588C1716.5847 2160.444 1756.5449 2073.2847 1755.7485 1981.7095L1756.6172 1979.7549 1759.6577 1980.6235V1981.7095C1760.5264 2074.4429 1720.0596 2162.7606 1649.2608 2222.6285L1647.2337 2223.2076 1645.9307 2220.312 1646.727 2219.588Z" transform="matrix(.24,0,0,.24,0,0)"/>
</clipPath>
<clipPath id="clip_133">
<path d="M0 0H2550V3300H0Z" transform="matrix(.24,0,0,.24,0,0)"/>
</clipPath>
<clipPath id="clip_134">
<path d="M0 0H2550V3300H0Z" transform="matrix(.24,0,0,.24,0,0)"/>
</clipPath>
<clipPath id="clip_135">
<path d="M1181.6795 1801.8776H1194.2619V1820.7512H1181.6795Z" transform="matrix(.24,0,0,.24,0,0)"/>
</clipPath>
<clipPath id="clip_136">
<path d="M1193.7009 1809.273 1189.5022 1815.4985 1186.3169 1819.48 1184.9415 1817.8875 1185.3035 1817.3084 1189.4299 1810.9379 1192.8323 1807.1011 1194.1353 1808.6937 1193.7009 1809.273Z" transform="matrix(.24,0,0,.24,0,0)"/>
</clipPath>
<clipPath id="clip_137">
<path d="M0 0H2550V3300H0Z" transform="matrix(.24,0,0,.24,0,0)"/>
</clipPath>
<clipPath id="clip_138">
<path d="M0 0H2550V3300H0Z" transform="matrix(.24,0,0,.24,0,0)"/>
</clipPath>
<clipPath id="clip_139">
<path d="M1471.0742 1896.2454H1590.6067V2147.893H1471.0742Z" transform="matrix(.24,0,0,.24,0,0)"/>
</clipPath>
<clipPath id="clip_140">
<path d="M1589.3928 1905.3364C1519.5352 1964.4802 1479.575 2051.6397 1480.3713 2143.2149L1479.5027 2145.1695 1476.4622 2144.3009V2143.2149C1475.5935 2050.4815 1516.0603 1962.1637 1586.8591 1902.2959L1588.8862 1901.7168 1590.1892 1904.6126 1589.3928 1905.3364Z" transform="matrix(.24,0,0,.24,0,0)"/>
</clipPath>
<clipPath id="clip_141">
<path d="M0 0H2550V3300H0Z" transform="matrix(.24,0,0,.24,0,0)"/>
</clipPath>
<clipPath id="clip_142">
<path d="M0 0H2550V3300H0Z" transform="matrix(.24,0,0,.24,0,0)"/>
</clipPath>
<clipPath id="clip_143">
<path d="M1351.5415 2644.897H1496.239V2732.9737H1351.5415Z" transform="matrix(.24,0,0,.24,0,0)"/>
</clipPath>
<clipPath id="clip_144">
<path d="M1358.3916 2725.7493 1493.0398 2648.435C1493.981 2647.9283 1495.1392 2648.218 1495.7183 2649.1593L1495.9356 2651.2584 1360.3462 2729.0794C1359.405 2729.586 1358.2468 2729.2965 1357.6677 2728.3555L1357.4505 2726.2559 1358.3916 2725.7493Z" transform="matrix(.24,0,0,.24,0,0)"/>
</clipPath>
<clipPath id="clip_145">
<path d="M0 0H2550V3300H0Z" transform="matrix(.24,0,0,.24,0,0)"/>
</clipPath>
<clipPath id="clip_146">
<path d="M0 0H2550V3300H0Z" transform="matrix(.24,0,0,.24,0,0)"/>
</clipPath>
<clipPath id="clip_147">
<path d="M892.2848 1241.9618H1326.3768V1493.6094H892.2848Z" transform="matrix(.24,0,0,.24,0,0)"/>
</clipPath>
<clipPath id="clip_148">
<path d="M893.6382 1487.8546 1318.8657 1242.4474C1319.8069 1241.9407 1320.9651 1242.2302 1321.5443 1243.1713L1321.7615 1245.2706 895.5927 1491.257C894.6516 1491.7637 893.49337 1491.4741 892.91427 1490.5331L892.6971 1488.4337 893.6382 1487.8546Z" transform="matrix(.24,0,0,.24,0,0)"/>
</clipPath>
<clipPath id="clip_149">
<path d="M0 0H2550V3300H0Z" transform="matrix(.24,0,0,.24,0,0)"/>
</clipPath>
<clipPath id="clip_150">
<path d="M0 0H2550V3300H0Z" transform="matrix(.24,0,0,.24,0,0)"/>
</clipPath>
<clipPath id="clip_151">
<path d="M1313.7944 1487.3181H1747.8865V1738.9657H1313.7944Z" transform="matrix(.24,0,0,.24,0,0)"/>
</clipPath>
<clipPath id="clip_152">
<path d="M1318.8657 1733.696 1744.5278 1487.8546C1745.469 1487.3479 1746.6272 1487.6375 1747.2063 1488.5785L1747.4236 1490.6779 1320.8203 1737.0261C1319.8794 1737.5328 1318.7211 1737.2434 1318.1419 1736.3023L1317.9248 1734.2029 1318.8657 1733.696Z" transform="matrix(.24,0,0,.24,0,0)"/>
</clipPath>
<clipPath id="clip_153">
<path d="M0 0H2550V3300H0Z" transform="matrix(.24,0,0,.24,0,0)"/>
</clipPath>
<clipPath id="clip_154">
<path d="M0 0H2550V3300H0Z" transform="matrix(.24,0,0,.24,0,0)"/>
</clipPath>
<clipPath id="clip_155">
<path d="M1911.4575 2324.0465H2093.9019V2506.4908H1911.4575Z" transform="matrix(.24,0,0,.24,0,0)"/>
</clipPath>
<clipPath id="clip_156">
<path d="M1918.2676 2402.5938 2052.4813 2325.2794C2053.0606 2324.9898 2053.712 2324.9176 2054.291 2325.207L2055.3048 2326.0035 2088.8944 2500.8289C2089.1114 2501.9149 2088.3875 2502.9283 2087.374 2503.1456L2085.2747 2502.6387 2051.6126 2327.379 2053.5672 2327.0169 2054.5084 2328.682 1920.2944 2405.996C1919.3533 2406.503 1918.1951 2406.2135 1917.616 2405.272L1917.3987 2403.1729 1918.2676 2402.5938Z" transform="matrix(.24,0,0,.24,0,0)"/>
</clipPath>
<clipPath id="clip_157">
<path fill-rule="evenodd" d="M0 0H2550V3300H0Z" transform="matrix(.24,0,0,.24,0,0)"/>
</clipPath>
</defs>
<g clip-path="url(#clip_0)">
<path fill="#ffffff" d="M0 0H816V1056H0Z" transform="matrix(.75,0,0,.75,0,0)"/>
</g>
<g clip-path="url(#clip_1)">
<g clip-path="url(#clip_2)">
<g clip-path="url(#clip_3)">
<g clip-path="url(#clip_4)">
<path d="M0 0H256V288H0Z" transform="matrix(1.5098854,0,0,1.5098854,123.555217,270.89289)"/>
</g>
</g>
</g>
</g>
<g clip-path="url(#clip_5)">
<g clip-path="url(#clip_6)">
<g clip-path="url(#clip_7)">
<g clip-path="url(#clip_8)">
<path fill="#c7c8ca" d="M0 0H256V288H0Z" transform="matrix(1.5098854,0,0,1.5098854,123.555217,270.89289)"/>
</g>
</g>
</g>
</g>
<g clip-path="url(#clip_9)">
<g clip-path="url(#clip_10)">
<g clip-path="url(#clip_11)">
<g clip-path="url(#clip_12)">
<path d="M0 0H256V288H0Z" transform="matrix(1.5098854,0,0,1.5098854,123.555217,270.89289)"/>
</g>
</g>
</g>
</g>
<g clip-path="url(#clip_13)">
<g clip-path="url(#clip_14)">
<g clip-path="url(#clip_15)">
<g clip-path="url(#clip_16)">
<path fill="#c7c8ca" d="M0 0H256V288H0Z" transform="matrix(1.5098854,0,0,1.5098854,123.555217,270.89289)"/>
</g>
</g>
</g>
</g>
<g clip-path="url(#clip_17)">
<g clip-path="url(#clip_18)">
<g clip-path="url(#clip_19)">
<g clip-path="url(#clip_20)">
<path fill="#c7c8ca" d="M0 0H256V288H0Z" transform="matrix(1.5098854,0,0,1.5098854,123.555217,270.89289)"/>
</g>
</g>
</g>
</g>
<g clip-path="url(#clip_21)">
<g clip-path="url(#clip_22)">
<g clip-path="url(#clip_23)">
<g clip-path="url(#clip_24)">
<path fill="#c7c8ca" d="M0 0H256V288H0Z" transform="matrix(1.5098854,0,0,1.5098854,123.555217,270.89289)"/>
</g>
</g>
</g>
</g>
<g clip-path="url(#clip_25)">
<g clip-path="url(#clip_26)">
<g clip-path="url(#clip_27)">
<g clip-path="url(#clip_28)">
<path d="M0 0H256V288H0Z" transform="matrix(1.5098854,0,0,1.5098854,123.555217,270.89289)"/>
</g>
</g>
</g>
</g>
<g clip-path="url(#clip_29)">
<g clip-path="url(#clip_30)">
<g clip-path="url(#clip_31)">
<g clip-path="url(#clip_32)">
<path fill="#c7c8ca" d="M0 0H256V288H0Z" transform="matrix(1.5098854,0,0,1.5098854,123.555217,270.89289)"/>
</g>
</g>
</g>
</g>
<g clip-path="url(#clip_33)">
<g clip-path="url(#clip_34)">
<g clip-path="url(#clip_35)">
<g clip-path="url(#clip_36)">
<path fill="#c7c8ca" d="M0 0H256V288H0Z" transform="matrix(1.5098854,0,0,1.5098854,123.555217,270.89289)"/>
</g>
</g>
</g>
</g>
<g clip-path="url(#clip_37)">
<g clip-path="url(#clip_38)">
<g clip-path="url(#clip_39)">
<g clip-path="url(#clip_40)">
<path fill="#c7c8ca" d="M0 0H256V288H0Z" transform="matrix(1.5098854,0,0,1.5098854,123.555217,270.89289)"/>
</g>
</g>
</g>
</g>
<g clip-path="url(#clip_41)">
<g clip-path="url(#clip_42)">
<g clip-path="url(#clip_43)">
<g clip-path="url(#clip_44)">
<path fill="#c7c8ca" d="M0 0H256V288H0Z" transform="matrix(1.5098854,0,0,1.5098854,123.555217,270.89289)"/>
</g>
</g>
</g>
</g>
<g clip-path="url(#clip_45)">
<g clip-path="url(#clip_46)">
<g clip-path="url(#clip_47)">
<g clip-path="url(#clip_48)">
<path d="M0 0H256V288H0Z" transform="matrix(1.5098854,0,0,1.5098854,123.555217,270.89289)"/>
</g>
</g>
</g>
</g>
<g clip-path="url(#clip_49)">
<g clip-path="url(#clip_50)">
<g clip-path="url(#clip_51)">
<g clip-path="url(#clip_52)">
<path fill="#c7c8ca" d="M0 0H256V288H0Z" transform="matrix(1.5098854,0,0,1.5098854,123.555217,270.89289)"/>
</g>
</g>
</g>
</g>
<g clip-path="url(#clip_53)">
<g clip-path="url(#clip_54)">
<g clip-path="url(#clip_55)">
<g clip-path="url(#clip_56)">
<path fill="#c7c8ca" d="M0 0H256V288H0Z" transform="matrix(1.5098854,0,0,1.5098854,123.555217,270.89289)"/>
</g>
</g>
</g>
</g>
<g clip-path="url(#clip_57)">
<g clip-path="url(#clip_58)">
<g clip-path="url(#clip_59)">
<g clip-path="url(#clip_60)">
<path d="M0 0H256V288H0Z" transform="matrix(1.5098854,0,0,1.5098854,123.555217,270.89289)"/>
</g>
</g>
</g>
</g>
<g clip-path="url(#clip_61)">
<g clip-path="url(#clip_62)">
<g clip-path="url(#clip_63)">
<g clip-path="url(#clip_64)">
<path fill="#c7c8ca" d="M0 0H256V288H0Z" transform="matrix(1.5098854,0,0,1.5098854,123.555217,270.89289)"/>
</g>
</g>
</g>
</g>
<g clip-path="url(#clip_65)">
<g clip-path="url(#clip_66)">
<g clip-path="url(#clip_67)">
<g clip-path="url(#clip_68)">
<path d="M0 0H256V288H0Z" transform="matrix(1.5098854,0,0,1.5098854,123.555217,270.89289)"/>
</g>
</g>
</g>
</g>
<g clip-path="url(#clip_69)">
<g clip-path="url(#clip_70)">
<g clip-path="url(#clip_71)">
<g clip-path="url(#clip_72)">
<path fill="#c7c8ca" d="M0 0H256V288H0Z" transform="matrix(1.5098854,0,0,1.5098854,123.555217,270.89289)"/>
</g>
</g>
</g>
</g>
<g clip-path="url(#clip_73)">
<g clip-path="url(#clip_74)">
<g clip-path="url(#clip_75)">
<g clip-path="url(#clip_76)">
<path d="M0 0H256V288H0Z" transform="matrix(1.5098854,0,0,1.5098854,123.555217,270.89289)"/>
</g>
</g>
</g>
</g>
<g clip-path="url(#clip_77)">
<g clip-path="url(#clip_78)">
<g clip-path="url(#clip_79)">
<g clip-path="url(#clip_80)">
<path fill="#c7c8ca" d="M0 0H256V288H0Z" transform="matrix(1.5098854,0,0,1.5098854,123.555217,270.89289)"/>
</g>
</g>
</g>
</g>
<g clip-path="url(#clip_81)">
<g clip-path="url(#clip_82)">
<g clip-path="url(#clip_83)">
<g clip-path="url(#clip_84)">
<path d="M0 0H256V288H0Z" transform="matrix(1.5098854,0,0,1.5098854,123.555217,270.89289)"/>
</g>
</g>
</g>
</g>
<g clip-path="url(#clip_85)">
<g clip-path="url(#clip_86)">
<g clip-path="url(#clip_87)">
<g clip-path="url(#clip_88)">
<path d="M0 0H256V288H0Z" transform="matrix(1.5098854,0,0,1.5098854,123.555217,270.89289)"/>
</g>
</g>
</g>
</g>
<g clip-path="url(#clip_89)">
<g clip-path="url(#clip_90)">
<g clip-path="url(#clip_91)">
<g clip-path="url(#clip_92)">
<path d="M0 0H256V288H0Z" transform="matrix(1.5098854,0,0,1.5098854,123.555217,270.89289)"/>
</g>
</g>
</g>
</g>
<g clip-path="url(#clip_93)">
<g clip-path="url(#clip_94)">
<g clip-path="url(#clip_95)">
<g clip-path="url(#clip_96)">
<path fill="#c7c8ca" d="M0 0H256V288H0Z" transform="matrix(1.5098854,0,0,1.5098854,123.555217,270.89289)"/>
</g>
</g>
</g>
</g>
<g clip-path="url(#clip_97)">
<g clip-path="url(#clip_98)">
<g clip-path="url(#clip_99)">
<g clip-path="url(#clip_100)">
<path fill="#c7c8ca" d="M0 0H256V288H0Z" transform="matrix(1.5098854,0,0,1.5098854,123.555217,270.89289)"/>
</g>
</g>
</g>
</g>
<g clip-path="url(#clip_101)">
<g clip-path="url(#clip_102)">
<g clip-path="url(#clip_103)">
<g clip-path="url(#clip_104)">
<path fill="#c7c8ca" d="M0 0H256V288H0Z" transform="matrix(1.5098854,0,0,1.5098854,123.555217,270.89289)"/>
</g>
</g>
</g>
</g>
<g clip-path="url(#clip_105)">
<g clip-path="url(#clip_106)">
<g clip-path="url(#clip_107)">
<g clip-path="url(#clip_108)">
<path fill="#c7c8ca" d="M0 0H256V288H0Z" transform="matrix(1.5098854,0,0,1.5098854,123.555217,270.89289)"/>
</g>
</g>
</g>
</g>
<g clip-path="url(#clip_109)">
<g clip-path="url(#clip_110)">
<g clip-path="url(#clip_111)">
<g clip-path="url(#clip_112)">
<path fill="#c7c8ca" d="M0 0H256V288H0Z" transform="matrix(1.5098854,0,0,1.5098854,123.555217,270.89289)"/>
</g>
</g>
</g>
</g>
<g clip-path="url(#clip_113)">
<g clip-path="url(#clip_114)">
<g clip-path="url(#clip_115)">
<g clip-path="url(#clip_116)">
<path fill="#c7c8ca" d="M0 0H256V288H0Z" transform="matrix(1.5098854,0,0,1.5098854,123.555217,270.89289)"/>
</g>
</g>
</g>
</g>
<g clip-path="url(#clip_117)">
<g clip-path="url(#clip_118)">
<g clip-path="url(#clip_119)">
<g clip-path="url(#clip_120)">
<path fill="#c7c8ca" d="M0 0H256V288H0Z" transform="matrix(1.5098854,0,0,1.5098854,123.555217,270.89289)"/>
</g>
</g>
</g>
</g>
<g clip-path="url(#clip_121)">
<g clip-path="url(#clip_122)">
<g clip-path="url(#clip_123)">
<g clip-path="url(#clip_124)">
<path d="M0 0H256V288H0Z" transform="matrix(1.5098854,0,0,1.5098854,123.555217,270.89289)"/>
</g>
</g>
</g>
</g>
<g clip-path="url(#clip_125)">
<g clip-path="url(#clip_126)">
<g clip-path="url(#clip_127)">
<g clip-path="url(#clip_128)">
<path d="M0 0H256V288H0Z" transform="matrix(1.5098854,0,0,1.5098854,123.555217,270.89289)"/>
</g>
</g>
</g>
</g>
<g clip-path="url(#clip_129)">
<g clip-path="url(#clip_130)">
<g clip-path="url(#clip_131)">
<g clip-path="url(#clip_132)">
<path d="M0 0H256V288H0Z" transform="matrix(1.5098854,0,0,1.5098854,123.555217,270.89289)"/>
</g>
</g>
</g>
</g>
<g clip-path="url(#clip_133)">
<g clip-path="url(#clip_134)">
<g clip-path="url(#clip_135)">
<g clip-path="url(#clip_136)">
<path fill="#c7c8ca" d="M0 0H256V288H0Z" transform="matrix(1.5098854,0,0,1.5098854,123.555217,270.89289)"/>
</g>
</g>
</g>
</g>
<g clip-path="url(#clip_137)">
<g clip-path="url(#clip_138)">
<g clip-path="url(#clip_139)">
<g clip-path="url(#clip_140)">
<path d="M0 0H256V288H0Z" transform="matrix(1.5098854,0,0,1.5098854,123.555217,270.89289)"/>
</g>
</g>
</g>
</g>
<g clip-path="url(#clip_141)">
<g clip-path="url(#clip_142)">
<g clip-path="url(#clip_143)">
<g clip-path="url(#clip_144)">
<path d="M0 0H256V288H0Z" transform="matrix(1.5098854,0,0,1.5098854,123.555217,270.89289)"/>
</g>
</g>
</g>
</g>
<g clip-path="url(#clip_145)">
<g clip-path="url(#clip_146)">
<g clip-path="url(#clip_147)">
<g clip-path="url(#clip_148)">
<path d="M0 0H256V288H0Z" transform="matrix(1.5098854,0,0,1.5098854,123.555217,270.89289)"/>
</g>
</g>
</g>
</g>
<g clip-path="url(#clip_149)">
<g clip-path="url(#clip_150)">
<g clip-path="url(#clip_151)">
<g clip-path="url(#clip_152)">
<path d="M0 0H256V288H0Z" transform="matrix(1.5098854,0,0,1.5098854,123.555217,270.89289)"/>
</g>
</g>
</g>
</g>
<g clip-path="url(#clip_153)">
<g clip-path="url(#clip_154)">
<g clip-path="url(#clip_155)">
<g clip-path="url(#clip_156)">
<path d="M0 0H256V288H0Z" transform="matrix(1.5098854,0,0,1.5098854,123.555217,270.89289)"/>
</g>
</g>
</g>
</g>
<g clip-path="url(#clip_157)">
<path d="M.000000000000063948849 .5H45.429437" stroke="#000000" fill="none" stroke-linejoin="miter" stroke-miterlimit="4" stroke-linecap="butt" stroke-width="1" transform="matrix(.18049143,-.72795799,.72795799,.18049143,132.26195,580.1672)"/>
</g>
</svg>