<svg xmlns="http://www.w3.org/2000/svg" xmlns:xlink="http://www.w3.org/1999/xlink" version="1.1" width="287pt" height="289pt" viewBox="0 0 287 289">
<defs>
<clipPath id="clip_0">
<path transform="matrix(0,-1,-1,-0,484,302)" d="M13 197H302V484H13Z" fill-rule="evenodd"/>
</clipPath>
<clipPath id="clip_1">
<path transform="matrix(0,-.06,-.06,-0,436,288)" d="M0 0H4671V11593H0V0"/>
</clipPath>
<clipPath id="clip_2">
<path transform="matrix(0,-.06,-.06,-0,436,288)" d="M0 0H4671V11593H0V0"/>
</clipPath>
<clipPath id="clip_3">
<path transform="matrix(0,-.06,-.06,-0,436,288)" d="M0 0H4671V11593H0V0"/>
</clipPath>
</defs>
<g clip-path="url(#clip_0)">
<g clip-path="url(#clip_1)">
<g id="layer_1" data-name="0">
<path transform="matrix(0,-.06,-.06,-0,436,288)" stroke-width="9" stroke-linecap="round" stroke-linejoin="round" fill="none" stroke="#000000" d="M1048 6594 447 5553 1585 3583"/>
<path transform="matrix(0,-.06,-.06,-0,436,288)" stroke-width="6" stroke-linecap="round" stroke-linejoin="round" fill="none" stroke="#939598" d="M1048 6594 2186 4623 1585 3583H1870"/>
<path transform="matrix(0,-.06,-.06,-0,436,288)" stroke-width="6" stroke-linecap="round" stroke-linejoin="round" fill="none" stroke="#939598" d="M2186 4623H2470"/>
<path transform="matrix(0,-.06,-.06,-0,436,288)" stroke-width="9" stroke-linecap="round" stroke-linejoin="round" fill="none" stroke="#000000" d="M1048 6594H1332"/>
<path transform="matrix(0,-.06,-.06,-0,436,288)" stroke-width="9" stroke-linecap="round" stroke-linejoin="round" fill="none" stroke="#000000" d="M447 5553H732L1427 4349"/>
<path transform="matrix(0,-.06,-.06,-0,436,288)" stroke-width="9" stroke-linecap="round" stroke-linejoin="round" fill="none" stroke="#000000" d="M1553 4130 1743 3802"/>
<path transform="matrix(0,-.06,-.06,-0,436,288)" stroke-width="6" stroke-linecap="round" stroke-linejoin="round" fill="none" stroke="#939598" d="M1870 3583 2470 4623 1332 6594"/>
<path transform="matrix(0,-.06,-.06,-0,436,288)" stroke-width="9" stroke-linecap="round" stroke-linejoin="round" fill="none" stroke="#000000" d="M1332 6594 732 5553"/>
<path transform="matrix(0,-.06,-.06,-0,436,288)" stroke-width="9" stroke-linecap="round" stroke-linejoin="round" fill="none" stroke="#000000" d="M1585 3583H3734"/>
<path transform="matrix(0,-.06,-.06,-0,436,288)" stroke-width="6" stroke-linecap="round" stroke-linejoin="round" fill="none" stroke="#939598" d="M2186 4623H4335"/>
<path transform="matrix(0,-.06,-.06,-0,436,288)" stroke-width="9" stroke-linecap="round" stroke-linejoin="round" fill="none" stroke="#000000" d="M4335 4623 3734 3583"/>
<path transform="matrix(0,-.06,-.06,-0,436,288)" stroke-width="9" stroke-linecap="round" stroke-linejoin="round" fill="none" stroke="#000000" d="M1585 3583 1459 3802"/>
<path transform="matrix(0,-.06,-.06,-0,436,288)" stroke-width="9" stroke-linecap="round" stroke-linejoin="round" fill="none" stroke="#000000" d="M1743 3802H3608L3734 3583"/>
<path transform="matrix(0,-.06,-.06,-0,436,288)" stroke-width="6" stroke-linecap="round" stroke-linejoin="round" fill="none" stroke="#939598" d="M2186 4623 2059 4842"/>
<path transform="matrix(0,-.06,-.06,-0,436,288)" stroke-width="9" stroke-linecap="round" stroke-linejoin="round" fill="none" stroke="#000000" d="M1933 4130 1743 3802H3608L4208 4842 4335 4623 4208 4842"/>
<path transform="matrix(0,-.06,-.06,-0,436,288)" stroke-width="9" stroke-linecap="round" stroke-linejoin="round" fill="none" stroke="#000000" d="M3608 3802H2818"/>
<path transform="matrix(0,-.06,-.06,-0,436,288)" stroke-width="6" stroke-linecap="round" stroke-linejoin="round" fill="none" stroke="#939598" d="M2818 3802 3418 4842"/>
<path transform="matrix(0,-.06,-.06,-0,436,288)" stroke-width="6" stroke-linecap="round" stroke-linejoin="round" fill="none" stroke="#939598" d="M3292 4623 3118 4322H3560 2675L2454 3938H3339L3782 4705H2897L2675 4322"/>
<path transform="matrix(0,-.06,-.06,-0,436,288)" stroke-width="6" stroke-linecap="round" stroke-linejoin="round" fill="none" stroke="#939598" d="M3339 4705V3938L2675 4322"/>
<path transform="matrix(0,-.06,-.06,-0,436,288)" stroke-width="6" stroke-linecap="round" stroke-linejoin="round" fill="none" stroke="#939598" d="M3560 4322 2897 4705V3938"/>
<path transform="matrix(.06,0,0,-.06,153.67002,114.15001)" stroke-width="9" stroke-linecap="round" stroke-linejoin="round" fill="none" stroke="#000000" d="M766.5 0C766.5 273.8528 620.39669 526.9019 383.2288 663.82077"/>
<path transform="matrix(.06,0,0,-.06,199.69,87.630008)" stroke-width="6" stroke-linecap="round" stroke-linejoin="round" fill="none" stroke="#939598" d="M-766.5 0C-766.5-273.8528-620.39669-526.9019-383.2288-663.82077"/>
<path transform="matrix(.06,0,0,-.06,169.03,87.630008)" stroke-width="9" stroke-linecap="round" stroke-linejoin="round" fill="none" stroke="#000000" d="M127.74293 221.27358C48.69455 266.9088-48.69455 266.9088-127.74293 221.27358"/>
<path transform="matrix(.06,0,0,-.06,184.33,114.15001)" stroke-width="9" stroke-linecap="round" stroke-linejoin="round" fill="none" stroke="#000000" d="M127.74293-221.27358C206.79889-175.63396 255.5-91.28427 255.5 0"/>
<path transform="matrix(0,-.06,-.06,-0,436,288)" stroke-width="6" stroke-linecap="round" stroke-linejoin="round" fill="none" stroke="#939598" d="M3118 4322 2849 4787"/>
<path transform="matrix(0,-.06,-.06,-0,436,288)" stroke-width="6" stroke-linecap="round" stroke-linejoin="round" fill="none" stroke="#939598" d="M3339 4705 3071 5170"/>
<path transform="matrix(0,-.06,-.06,-0,436,288)" stroke-width="6" stroke-linecap="round" stroke-linejoin="round" fill="none" stroke="#939598" d="M3560 4322 3292 4787"/>
<path transform="matrix(0,-.06,-.06,-0,436,288)" stroke-width="6" stroke-linecap="round" stroke-linejoin="round" fill="none" stroke="#939598" d="M3339 4449 3071 4915"/>
<path transform="matrix(.06,0,0,-.06,141.07,103.71001)" stroke-width="9" stroke-linecap="round" stroke-linejoin="round" fill="none" stroke="#000000" d="M127.74293 221.27358C48.69075 266.911-48.70355 266.90867-127.75353 221.26746-206.80353 175.62624-255.5 91.27991-255.5 0"/>
<path transform="matrix(0,-.06,-.06,-0,436,288)" stroke-width="6" stroke-linecap="round" stroke-linejoin="round" fill="none" stroke="#939598" d="M2897 3938 2628 4404"/>
<path transform="matrix(0,-.06,-.06,-0,436,288)" stroke-width="6" stroke-linecap="round" stroke-linejoin="round" fill="none" stroke="#939598" d="M2675 4322 2407 4787"/>
<path transform="matrix(0,-.06,-.06,-0,436,288)" stroke-width="6" stroke-linecap="round" stroke-linejoin="round" fill="none" stroke="#939598" d="M2897 4194 2628 4659"/>
<path transform="matrix(.06,0,0,-.06,156.43,130.29001)" stroke-width="9" stroke-linecap="round" stroke-linejoin="round" fill="none" stroke="#000000" d="M-127.74293-221.27358C-48.69075-266.911 48.70355-266.90867 127.75353-221.26746 206.80353-175.62624 255.5-91.27991 255.5 0"/>
<path transform="matrix(0,-.06,-.06,-0,436,288)" stroke-width="6" stroke-linecap="round" stroke-linejoin="round" fill="none" stroke="#939598" d="M3339 4705 3071 5170"/>
<path transform="matrix(0,-.06,-.06,-0,436,288)" stroke-width="6" stroke-linecap="round" stroke-linejoin="round" fill="none" stroke="#939598" d="M3339 3938 3071 4404"/>
<path transform="matrix(.06,0,0,-.06,171.73001,103.71001)" stroke-width="9" stroke-linecap="round" stroke-linejoin="round" fill="none" stroke="#000000" d="M-766.5 0C-766.5-273.8528-620.39669-526.9019-383.2288-663.82077"/>
<path transform="matrix(0,-.06,-.06,-0,436,288)" stroke-width="6" stroke-linecap="round" stroke-linejoin="round" fill="none" stroke="#939598" d="M2897 4705 2628 5170"/>
<path transform="matrix(.06,0,0,-.06,125.77002,130.29001)" stroke-width="9" stroke-linecap="round" stroke-linejoin="round" fill="none" stroke="#000000" d="M766.5 0C766.5 273.8528 620.39669 526.9019 383.2288 663.82077"/>
<path transform="matrix(0,-.06,-.06,-0,436,288)" stroke-width="6" stroke-linecap="round" stroke-linejoin="round" fill="none" stroke="#939598" d="M2454 3938 3782 4705"/>
<path transform="matrix(0,-.06,-.06,-0,436,288)" stroke-width="9" stroke-linecap="round" stroke-linejoin="round" fill="none" stroke="#000000" d="M3560 4577 3292 5042"/>
<path transform="matrix(0,-.06,-.06,-0,436,288)" stroke-width="9" stroke-linecap="round" stroke-linejoin="round" fill="none" stroke="#000000" d="M2675 4066 2407 4531"/>
<path transform="matrix(0,-.06,-.06,-0,436,288)" stroke-width="6" stroke-linecap="round" stroke-linejoin="round" fill="none" stroke="#939598" d="M3118 4322 2849 4787H3165L3007 4513H2375L2691 5061H3323L3165 4787H2849 2533L2375 4513H2691L2849 4787H3165L3323 5061H3007L2691 4513"/>
<path transform="matrix(0,-.06,-.06,-0,436,288)" stroke-width="6" stroke-linecap="round" stroke-linejoin="round" fill="none" stroke="#939598" d="M3007 5061V4513L2533 4787"/>
<path transform="matrix(0,-.06,-.06,-0,436,288)" stroke-width="6" stroke-linecap="round" stroke-linejoin="round" fill="none" stroke="#939598" d="M2691 4513V5061L3165 4787"/>
<path transform="matrix(.06,0,0,-.06,132.31,126.51001)" stroke-width="9" stroke-linecap="round" stroke-linejoin="round" fill="none" stroke="#000000" d="M547.5 0C547.5 195.60916 443.14048 376.3585 273.73484 474.15766"/>
<path transform="matrix(.06,0,0,-.06,165.19,107.55)" stroke-width="9" stroke-linecap="round" stroke-linejoin="round" fill="none" stroke="#000000" d="M-547.5 0C-547.5-195.60916-443.14048-376.3585-273.73484-474.15766"/>
<path transform="matrix(.06,0,0,-.06,143.29001,107.55)" stroke-width="9" stroke-linecap="round" stroke-linejoin="round" fill="none" stroke="#000000" d="M91.24495 158.05255C34.77911 190.65071-34.78825 190.64905-91.25253 158.04817-147.7168 125.44731-182.5 65.19993-182.5 0"/>
<path transform="matrix(.06,0,0,-.06,154.20999,126.51001)" stroke-width="9" stroke-linecap="round" stroke-linejoin="round" fill="none" stroke="#000000" d="M-91.24495-158.05255C-34.77911-190.65071 34.78825-190.64905 91.25253-158.04817 147.7168-125.44731 182.5-65.19993 182.5 0"/>
<path transform="matrix(0,-.06,-.06,-0,436,288)" stroke-width="9" stroke-linecap="round" stroke-linejoin="round" fill="none" stroke="#000000" d="M1743 3802 1553 4130"/>
<path transform="matrix(0,-.06,-.06,-0,436,288)" stroke-width="9" stroke-linecap="round" stroke-linejoin="round" fill="none" stroke="#000000" d="M1427 4349H1996L2122 4130H1553"/>
<path transform="matrix(0,-.06,-.06,-0,436,288)" stroke-width="6" stroke-linecap="round" stroke-linejoin="round" fill="none" stroke="#939598" d="M1996 4349 2596 5389 2723 5170 2122 4130"/>
<path transform="matrix(0,-.06,-.06,-0,436,288)" stroke-width="6" stroke-linecap="round" stroke-linejoin="round" fill="none" stroke="#939598" d="M2596 5389H2028L1427 4349"/>
<path transform="matrix(0,-.06,-.06,-0,436,288)" stroke-width="6" stroke-linecap="round" stroke-linejoin="round" fill="none" stroke="#939598" d="M2723 5170H2154L1553 4130"/>
<path transform="matrix(0,-.06,-.06,-0,436,288)" stroke-width="9" stroke-linecap="round" stroke-linejoin="round" fill="none" stroke="#000000" d="M732 5553 1032 6073"/>
<path transform="matrix(0,-.06,-.06,-0,436,288)" stroke-width="6" stroke-linecap="round" stroke-linejoin="round" fill="none" stroke="#939598" d="M1032 6073 1727 4869H2296"/>
<path transform="matrix(0,-.06,-.06,-0,436,288)" stroke-width="6" stroke-linecap="round" stroke-linejoin="round" fill="none" stroke="#939598" d="M1727 4869H2170L2107 4760 2233 4979"/>
<path transform="matrix(0,-.06,-.06,-0,436,288)" stroke-width="6" stroke-linecap="round" stroke-linejoin="round" fill="none" stroke="#939598" d="M2107 4760H1664L1158 5635 1285 5854"/>
<path transform="matrix(0,-.06,-.06,-0,436,288)" stroke-width="6" stroke-linecap="round" stroke-linejoin="round" fill="none" stroke="#939598" d="M2233 4979H1791L1285 5854 2233 4979"/>
<path transform="matrix(0,-.06,-.06,-0,436,288)" stroke-width="6" stroke-linecap="round" stroke-linejoin="round" fill="none" stroke="#939598" d="M1158 5635 2107 4760"/>
<path transform="matrix(0,-.06,-.06,-0,436,288)" stroke-width="9" stroke-linecap="round" stroke-linejoin="round" fill="none" stroke="#000000" d="M4208 4842H3408"/>
<path transform="matrix(0,-.06,-.06,-0,436,288)" stroke-width="9" stroke-linecap="round" stroke-linejoin="round" fill="none" stroke="#000000" d="M1664 4760 1427 4349"/>
<path transform="matrix(0,-.06,-.06,-0,436,288)" stroke-width="9" stroke-linecap="round" stroke-linejoin="round" fill="none" stroke="#000000" d="M1996 4349 2596 5389 2723 5170 2651 5045"/>
<path transform="matrix(0,-.06,-.06,-0,436,288)" stroke-width="9" stroke-linecap="round" stroke-linejoin="round" fill="none" stroke="#000000" d="M2122 4130 2384 4583"/>
<path transform="matrix(0,-.06,-.06,-0,436,288)" stroke-width="9" stroke-linecap="round" stroke-linejoin="round" fill="none" stroke="#000000" d="M2596 5389H2028L1332 6594"/>
<path transform="matrix(0,-.06,-.06,-0,436,288)" stroke-width="9" stroke-linecap="round" stroke-linejoin="round" fill="none" stroke="#000000" d="M1158 5635 2107 4760 2233 4979 2107 4760H1664L1158 5635 1285 5854 2233 4979"/>
<path transform="matrix(0,-.06,-.06,-0,436,288)" stroke-width="9" stroke-linecap="round" stroke-linejoin="round" fill="none" stroke="#000000" d="M2028 5389 1944 5245"/>
<path transform="matrix(0,-.06,-.06,-0,436,288)" stroke-width="6" stroke-linecap="round" stroke-linejoin="round" fill="none" stroke="#939598" d="M1586 3581 1724 3341"/>
<path transform="matrix(0,-.06,-.06,-0,436,288)" stroke-width="6" stroke-linecap="round" stroke-linejoin="round" fill="none" stroke="#939598" d="M3735 3581 3874 3341"/>
<path transform="matrix(0,-.06,-.06,-0,436,288)" stroke-width="6" stroke-linecap="round" stroke-linejoin="round" fill="none" stroke="#939598" d="M1727 3347H2761"/>
<path transform="matrix(0,-.06,-.06,-0,436,288)" stroke-width="6" stroke-linecap="round" stroke-linejoin="round" fill="none" stroke="#939598" d="M3865 3347H2831"/>
<path transform="matrix(0,-.06,-.06,-0,436,288)" d="M1727 3348V3346L1721 3347Z" fill="#939598"/>
<path transform="matrix(0,-.06,-.06,-0,436,288)" stroke-width="0" stroke-linecap="round" stroke-miterlimit="10" stroke-linejoin="miter" fill="none" stroke="#939598" d="M1727 3348V3346L1721 3347Z"/>
<path transform="matrix(0,-.06,-.06,-0,436,288)" d="M3865 3348V3346L3870 3347Z" fill="#939598"/>
<path transform="matrix(0,-.06,-.06,-0,436,288)" stroke-width="0" stroke-linecap="round" stroke-miterlimit="10" stroke-linejoin="miter" fill="none" stroke="#939598" d="M3865 3348V3346L3870 3347Z"/>
</g>
</g>
<g clip-path="url(#clip_2)">
<g id="layer_1" data-name="0">
<text xml:space="preserve" transform="matrix(.06 0 0 .06 436 288)" font-size="88.309" font-family="ArialMT"><tspan y="-2765" x="-3396 -3346.9002">68</tspan></text>
</g>
<g clip-path="url(#clip_3)">
<path transform="matrix(0,-.06,-.06,-0,436,288)" stroke-width="6" stroke-linecap="round" stroke-linejoin="round" fill="none" stroke="#939598" d="M4336 4621 4480 4371"/>
<path transform="matrix(0,-.06,-.06,-0,436,288)" stroke-width="6" stroke-linecap="round" stroke-linejoin="round" fill="none" stroke="#939598" d="M3735 3581 3879 3331"/>
<path transform="matrix(0,-.06,-.06,-0,436,288)" stroke-width="6" stroke-linecap="round" stroke-linejoin="round" fill="none" stroke="#939598" d="M4474 4372 4204 3905"/>
<path transform="matrix(0,-.06,-.06,-0,436,288)" stroke-width="6" stroke-linecap="round" stroke-linejoin="round" fill="none" stroke="#939598" d="M3879 3342 4149 3809"/>
<path transform="matrix(0,-.06,-.06,-0,436,288)" d="M4475 4372H4473L4477 4377Z" fill="#939598"/>
<path transform="matrix(0,-.06,-.06,-0,436,288)" stroke-width="0" stroke-linecap="round" stroke-miterlimit="10" stroke-linejoin="miter" fill="none" stroke="#939598" d="M4475 4372H4473L4477 4377Z"/>
<path transform="matrix(0,-.06,-.06,-0,436,288)" d="M3880 3341 3878 3342 3876 3337Z" fill="#939598"/>
<path transform="matrix(0,-.06,-.06,-0,436,288)" stroke-width="0" stroke-linecap="round" stroke-miterlimit="10" stroke-linejoin="miter" fill="none" stroke="#939598" d="M3880 3341 3878 3342 3876 3337Z"/>
<text xml:space="preserve" transform="matrix(.06 0 0 .06 436 288)" font-size="88.309" font-family="ArialMT"><tspan y="-4145" x="-3906 -3856.9002">38</tspan></text>
<path transform="matrix(0,-.06,-.06,-0,436,288)" stroke-width="6" stroke-linecap="round" stroke-linejoin="round" fill="none" stroke="#939598" d="M4209 4844 4277 4960"/>
<path transform="matrix(0,-.06,-.06,-0,436,288)" stroke-width="6" stroke-linecap="round" stroke-linejoin="round" fill="none" stroke="#939598" d="M4336 4625 4403 4741"/>
<path transform="matrix(0,-.06,-.06,-0,436,288)" stroke-width="6" stroke-linecap="round" stroke-linejoin="round" fill="none" stroke="#939598" d="M4276 4949 4323 4869"/>
<path transform="matrix(0,-.06,-.06,-0,436,288)" stroke-width="6" stroke-linecap="round" stroke-linejoin="round" fill="none" stroke="#939598" d="M4397 4740 4350 4821"/>
<path transform="matrix(0,-.06,-.06,-0,436,288)" d="M4277 4950 4275 4949 4273 4954Z" fill="#939598"/>
<path transform="matrix(0,-.06,-.06,-0,436,288)" stroke-width="0" stroke-linecap="round" stroke-miterlimit="10" stroke-linejoin="miter" fill="none" stroke="#939598" d="M4277 4950 4275 4949 4273 4954Z"/>
<path transform="matrix(0,-.06,-.06,-0,436,288)" d="M4398 4741 4396 4740 4400 4735Z" fill="#939598"/>
<path transform="matrix(0,-.06,-.06,-0,436,288)" stroke-width="0" stroke-linecap="round" stroke-miterlimit="10" stroke-linejoin="miter" fill="none" stroke="#939598" d="M4398 4741 4396 4740 4400 4735Z"/>
<text xml:space="preserve" transform="matrix(.06 0 0 .06 436 288)" font-size="88.309" font-family="ArialMT"><tspan y="-4306" x="-4869">8</tspan></text>
<path transform="matrix(0,-.06,-.06,-0,436,288)" stroke-width="6" stroke-linecap="round" stroke-linejoin="round" fill="none" stroke="#939598" d="M3562 4579 3923 5204"/>
<path transform="matrix(0,-.06,-.06,-0,436,288)" stroke-width="6" stroke-linecap="round" stroke-linejoin="round" fill="none" stroke="#939598" d="M3293 5044 3654 5670"/>
<path transform="matrix(0,-.06,-.06,-0,436,288)" stroke-width="6" stroke-linecap="round" stroke-linejoin="round" fill="none" stroke="#939598" d="M3917 5204 3811 5386"/>
<path transform="matrix(0,-.06,-.06,-0,436,288)" stroke-width="6" stroke-linecap="round" stroke-linejoin="round" fill="none" stroke="#939598" d="M3654 5659 3759 5477"/>
<path transform="matrix(0,-.06,-.06,-0,436,288)" d="M3917 5204 3916 5203 3919 5199Z" fill="#939598"/>
<path transform="matrix(0,-.06,-.06,-0,436,288)" stroke-width="0" stroke-linecap="round" stroke-miterlimit="10" stroke-linejoin="miter" fill="none" stroke="#939598" d="M3917 5204 3916 5203 3919 5199Z"/>
<path transform="matrix(0,-.06,-.06,-0,436,288)" d="M3654 5660 3653 5659 3651 5664Z" fill="#939598"/>
<path transform="matrix(0,-.06,-.06,-0,436,288)" stroke-width="0" stroke-linecap="round" stroke-miterlimit="10" stroke-linejoin="miter" fill="none" stroke="#939598" d="M3654 5660 3653 5659 3651 5664Z"/>
<text xml:space="preserve" transform="matrix(.06 0 0 .06 436 288)" font-size="88.309" font-family="ArialMT"><tspan y="-3753" x="-5483 -5433.9006">17</tspan></text>
<path transform="matrix(0,-.06,-.06,-0,436,288)" stroke-width="6" stroke-linecap="round" stroke-linejoin="round" fill="none" stroke="#939598" d="M3560 4577 3529 4522"/>
<path transform="matrix(0,-.06,-.06,-0,436,288)" stroke-width="6" stroke-linecap="round" stroke-linejoin="round" fill="none" stroke="#939598" d="M2598 5391 2686 5545"/>
<path transform="matrix(0,-.06,-.06,-0,436,288)" stroke-width="6" stroke-linecap="round" stroke-linejoin="round" fill="none" stroke="#939598" d="M2724 5172 2813 5326"/>
<path transform="matrix(0,-.06,-.06,-0,436,288)" stroke-width="6" stroke-linecap="round" stroke-linejoin="round" fill="none" stroke="#939598" d="M2686 5534 2733 5453"/>
<path transform="matrix(0,-.06,-.06,-0,436,288)" stroke-width="6" stroke-linecap="round" stroke-linejoin="round" fill="none" stroke="#939598" d="M2807 5325 2760 5406"/>
<path transform="matrix(0,-.06,-.06,-0,436,288)" d="M2687 5535 2685 5534 2683 5539Z" fill="#939598"/>
<path transform="matrix(0,-.06,-.06,-0,436,288)" stroke-width="0" stroke-linecap="round" stroke-miterlimit="10" stroke-linejoin="miter" fill="none" stroke="#939598" d="M2687 5535 2685 5534 2683 5539Z"/>
<path transform="matrix(0,-.06,-.06,-0,436,288)" d="M2807 5326 2806 5325 2809 5320Z" fill="#939598"/>
<path transform="matrix(0,-.06,-.06,-0,436,288)" stroke-width="0" stroke-linecap="round" stroke-miterlimit="10" stroke-linejoin="miter" fill="none" stroke="#939598" d="M2807 5326 2806 5325 2809 5320Z"/>
<text xml:space="preserve" transform="matrix(.06 0 0 .06 436 288)" font-size="88.309" font-family="ArialMT"><tspan y="-2715" x="-5454">8</tspan></text>
<path transform="matrix(0,-.06,-.06,-0,436,288)" stroke-width="6" stroke-linecap="round" stroke-linejoin="round" fill="none" stroke="#939598" d="M1157 5637 631 6550"/>
<path transform="matrix(0,-.06,-.06,-0,436,288)" stroke-width="6" stroke-linecap="round" stroke-linejoin="round" fill="none" stroke="#939598" d="M1284 5856 757 6769"/>
<path transform="matrix(0,-.06,-.06,-0,436,288)" stroke-width="6" stroke-linecap="round" stroke-linejoin="round" fill="none" stroke="#939598" d="M637 6549 683 6630"/>
<path transform="matrix(0,-.06,-.06,-0,436,288)" stroke-width="6" stroke-linecap="round" stroke-linejoin="round" fill="none" stroke="#939598" d="M757 6758 711 6677"/>
<path transform="matrix(0,-.06,-.06,-0,436,288)" d="M638 6548 636 6549 634 6544Z" fill="#939598"/>
<path transform="matrix(0,-.06,-.06,-0,436,288)" stroke-width="0" stroke-linecap="round" stroke-miterlimit="10" stroke-linejoin="miter" fill="none" stroke="#939598" d="M638 6548 636 6549 634 6544Z"/>
<path transform="matrix(0,-.06,-.06,-0,436,288)" d="M758 6758 757 6759 760 6763Z" fill="#939598"/>
<path transform="matrix(0,-.06,-.06,-0,436,288)" stroke-width="0" stroke-linecap="round" stroke-miterlimit="10" stroke-linejoin="miter" fill="none" stroke="#939598" d="M758 6758 757 6759 760 6763Z"/>
<text xml:space="preserve" transform="matrix(.06 0 0 .06 436 288)" font-size="88.309" font-family="ArialMT"><tspan y="-666" x="-6678">8</tspan></text>
<path transform="matrix(0,-.06,-.06,-0,436,288)" stroke-width="6" stroke-linecap="round" stroke-linejoin="round" fill="none" stroke="#939598" d="M1049 6595 1128 6732"/>
<path transform="matrix(0,-.06,-.06,-0,436,288)" stroke-width="6" stroke-linecap="round" stroke-linejoin="round" fill="none" stroke="#939598" d="M1333 6595 1412 6732"/>
<path transform="matrix(0,-.06,-.06,-0,436,288)" stroke-width="6" stroke-linecap="round" stroke-linejoin="round" fill="none" stroke="#939598" d="M1130 6727H1232"/>
<path transform="matrix(0,-.06,-.06,-0,436,288)" stroke-width="6" stroke-linecap="round" stroke-linejoin="round" fill="none" stroke="#939598" d="M1403 6727H1302"/>
<path transform="matrix(0,-.06,-.06,-0,436,288)" d="M1130 6727V6726L1125 6727Z" fill="#939598"/>
<path transform="matrix(0,-.06,-.06,-0,436,288)" stroke-width="0" stroke-linecap="round" stroke-miterlimit="10" stroke-linejoin="miter" fill="none" stroke="#939598" d="M1130 6727V6726L1125 6727Z"/>
<path transform="matrix(0,-.06,-.06,-0,436,288)" d="M1403 6727V6726L1409 6727Z" fill="#939598"/>
<path transform="matrix(0,-.06,-.06,-0,436,288)" stroke-width="0" stroke-linecap="round" stroke-miterlimit="10" stroke-linejoin="miter" fill="none" stroke="#939598" d="M1403 6727V6726L1409 6727Z"/>
<text xml:space="preserve" transform="matrix(.06 0 0 .06 436 288)" font-size="88.309" font-family="ArialMT"><tspan y="-1236" x="-6751">9</tspan></text>
<path transform="matrix(0,-.06,-.06,-0,436,288)" stroke-width="6" stroke-linecap="round" stroke-linejoin="round" fill="none" stroke="#939598" d="M1742 3800 1491 3365"/>
<path transform="matrix(0,-.06,-.06,-0,436,288)" stroke-width="6" stroke-linecap="round" stroke-linejoin="round" fill="none" stroke="#939598" d="M1426 4347 1175 3913"/>
<path transform="matrix(0,-.06,-.06,-0,436,288)" stroke-width="6" stroke-linecap="round" stroke-linejoin="round" fill="none" stroke="#939598" d="M1492 3376 1365 3596"/>
<path transform="matrix(0,-.06,-.06,-0,436,288)" stroke-width="6" stroke-linecap="round" stroke-linejoin="round" fill="none" stroke="#939598" d="M1181 3914 1309 3693"/>
<path transform="matrix(0,-.06,-.06,-0,436,288)" d="M1493 3377 1491 3376 1495 3371Z" fill="#939598"/>
<path transform="matrix(0,-.06,-.06,-0,436,288)" stroke-width="0" stroke-linecap="round" stroke-miterlimit="10" stroke-linejoin="miter" fill="none" stroke="#939598" d="M1493 3377 1491 3376 1495 3371Z"/>
<path transform="matrix(0,-.06,-.06,-0,436,288)" d="M1182 3914 1181 3913 1179 3919Z" fill="#939598"/>
<path transform="matrix(0,-.06,-.06,-0,436,288)" stroke-width="0" stroke-linecap="round" stroke-miterlimit="10" stroke-linejoin="miter" fill="none" stroke="#939598" d="M1182 3914 1181 3913 1179 3919Z"/>
<text xml:space="preserve" transform="matrix(.06 0 0 .06 436 288)" font-size="88.309" font-family="ArialMT"><tspan y="-1306" x="-3693 -3643.9002">20</tspan></text>
<path transform="matrix(0,-.06,-.06,-0,436,288)" stroke-width="6" stroke-linecap="round" stroke-linejoin="round" fill="none" stroke="#939598" d="M1663 4758 1174 3911"/>
<path transform="matrix(0,-.06,-.06,-0,436,288)" stroke-width="6" stroke-linecap="round" stroke-linejoin="round" fill="none" stroke="#939598" d="M1157 5633 669 4787"/>
<path transform="matrix(0,-.06,-.06,-0,436,288)" stroke-width="6" stroke-linecap="round" stroke-linejoin="round" fill="none" stroke="#939598" d="M1175 3922 996 4232"/>
<path transform="matrix(0,-.06,-.06,-0,436,288)" stroke-width="6" stroke-linecap="round" stroke-linejoin="round" fill="none" stroke="#939598" d="M675 4788 941 4328"/>
<path transform="matrix(0,-.06,-.06,-0,436,288)" d="M1176 3922H1174L1178 3917Z" fill="#939598"/>
<path transform="matrix(0,-.06,-.06,-0,436,288)" stroke-width="0" stroke-linecap="round" stroke-miterlimit="10" stroke-linejoin="miter" fill="none" stroke="#939598" d="M1176 3922H1174L1178 3917Z"/>
<path transform="matrix(0,-.06,-.06,-0,436,288)" d="M676 4789 674 4788 672 4793Z" fill="#939598"/>
<path transform="matrix(0,-.06,-.06,-0,436,288)" stroke-width="0" stroke-linecap="round" stroke-miterlimit="10" stroke-linejoin="miter" fill="none" stroke="#939598" d="M676 4789 674 4788 672 4793Z"/>
<text xml:space="preserve" transform="matrix(.06 0 0 .06 436 288)" font-size="88.309" font-family="ArialMT"><tspan y="-937" x="-4328 -4278.9006">32</tspan></text>
<text xml:space="preserve" transform="matrix(.06 0 0 .06 436 288)" font-size="88.309" font-family="ArialMT"><tspan y="-2976" x="-5578 -5514.2409 -5465.141">R10</tspan></text>
<path transform="matrix(0,-.06,-.06,-0,436,288)" d="M2853 4791 2849 4787 2851 4792Z" fill="#939598"/>
<path transform="matrix(0,-.06,-.06,-0,436,288)" stroke-width="0" stroke-linecap="round" stroke-miterlimit="10" stroke-linejoin="miter" fill="none" stroke="#939598" d="M2853 4791 2849 4787 2851 4792Z"/>
<path transform="matrix(0,-.06,-.06,-0,436,288)" stroke-width="6" stroke-linecap="round" stroke-linejoin="round" fill="none" stroke="#939598" d="M2852 4792 3007 5061V5417"/>
<text xml:space="preserve" transform="matrix(.06 0 0 .06 436 288)" font-size="88.309" font-family="ArialMT"><tspan y="-3039" x="-5342 -5278.2409 -5229.141">R14</tspan></text>
<path transform="matrix(0,-.06,-.06,-0,436,288)" d="M2853 4791 2849 4787 2851 4792Z" fill="#939598"/>
<path transform="matrix(0,-.06,-.06,-0,436,288)" stroke-width="0" stroke-linecap="round" stroke-miterlimit="10" stroke-linejoin="miter" fill="none" stroke="#939598" d="M2853 4791 2849 4787 2851 4792Z"/>
<path transform="matrix(0,-.06,-.06,-0,436,288)" stroke-width="6" stroke-linecap="round" stroke-linejoin="round" fill="none" stroke="#939598" d="M2852 4792 3071 5170V5182"/>
</g>
</g>
</g>
</svg>
