<svg viewBox="321.9412673879443 291.312 285.21792890262753 274.176" version="1.1" xmlns:xlink="http://www.w3.org/1999/xlink" xmlns="http://www.w3.org/2000/svg" style="max-height: 500px" width="285.21792890262753" height="274.176">
<defs>
<clipPath id="clip_0">
<path d="M0 0H4671V11593H0V0" transform="matrix(0,-.06,-.06,-0,744,598)"/>
</clipPath>
</defs>
<g clip-path="url(#clip_0)">
<g data-name="0" id="layer_1">
<path d="M2064 6437H1798L1000 5054 2331 2750" stroke="#000000" fill="none" stroke-linejoin="round" stroke-linecap="round" stroke-width="9" transform="matrix(0,-.06,-.06,-0,744,598)"/>
<path d="M1000 5054H1266" stroke="#000000" fill="none" stroke-linejoin="round" stroke-linecap="round" stroke-width="9" transform="matrix(0,-.06,-.06,-0,744,598)"/>
<path d="M2331 2750H2597" stroke="#c7c8ca" fill="none" stroke-linejoin="round" stroke-linecap="round" stroke-width="6" transform="matrix(0,-.06,-.06,-0,744,598)"/>
<path d="M2064 6437 1266 5054" stroke="#000000" fill="none" stroke-linejoin="round" stroke-linecap="round" stroke-width="9" transform="matrix(0,-.06,-.06,-0,744,598)"/>
<path d="M2331 2750H3129" stroke="#000000" fill="none" stroke-linejoin="round" stroke-linecap="round" stroke-width="9" transform="matrix(0,-.06,-.06,-0,744,598)"/>
<path d="M3927 5054H2597L1931 6206 3262 3902H1931L601 6206H3262L4592 3902H3262L2597 5054H1266 2597" stroke="#c7c8ca" fill="none" stroke-linejoin="round" stroke-linecap="round" stroke-width="6" transform="matrix(0,-.06,-.06,-0,744,598)"/>
<path d="M3262 3902V6206L1266 5054" stroke="#c7c8ca" fill="none" stroke-linejoin="round" stroke-linecap="round" stroke-width="6" transform="matrix(0,-.06,-.06,-0,744,598)"/>
<path d="M3262 3902 3594 3326H2929 2796L3129 2750" stroke="#000000" fill="none" stroke-linejoin="round" stroke-linecap="round" stroke-width="9" transform="matrix(0,-.06,-.06,-0,744,598)"/>
<path d="M2064 6437 2114 6354 2168 6274 2225 6196 2285 6120 2348 6047 2414 5977 2483 5909 2554 5845 2629 5783 2706 5725 2785 5670 2866 5618 2950 5570 3035 5525 3123 5484 3212 5446 3302 5413 3394 5383 3487 5357 3581 5335 3676 5317 3771 5303 3867 5293 3963 5287 4060 5285" stroke="#000000" fill="none" stroke-linejoin="round" stroke-linecap="round" stroke-width="9" transform="matrix(0,-.06,-.06,-0,744,598)"/>
<path d="M3262 3902 3528 4363" stroke="#c7c8ca" fill="none" stroke-linejoin="round" stroke-linecap="round" stroke-width="6" transform="matrix(0,-.06,-.06,-0,744,598)"/>
<path d="M3794 4824 4060 5285" stroke="#000000" fill="none" stroke-linejoin="round" stroke-linecap="round" stroke-width="9" transform="matrix(0,-.06,-.06,-0,744,598)"/>
<path d="M3594 3326 3860 3787" stroke="#000000" fill="none" stroke-linejoin="round" stroke-linecap="round" stroke-width="9" transform="matrix(0,-.06,-.06,-0,744,598)"/>
<path d="M4126 4248 4392 4709 4060 5285" stroke="#000000" fill="none" stroke-linejoin="round" stroke-linecap="round" stroke-width="9" transform="matrix(0,-.06,-.06,-0,744,598)"/>
<path d="M3129 2750 3461 3326" stroke="#000000" fill="none" stroke-linejoin="round" stroke-linecap="round" stroke-width="9" transform="matrix(0,-.06,-.06,-0,744,598)"/>
<path d="M3262 3902 3528 4363" stroke="#000000" fill="none" stroke-linejoin="round" stroke-linecap="round" stroke-width="9" transform="matrix(0,-.06,-.06,-0,744,598)"/>
<path d="M3528 4363 3860 3787" stroke="#c7c8ca" fill="none" stroke-linejoin="round" stroke-linecap="round" stroke-width="6" transform="matrix(0,-.06,-.06,-0,744,598)"/>
<path d="M3860 3787 3528 4363" stroke="#000000" fill="none" stroke-linejoin="round" stroke-linecap="round" stroke-width="9" transform="matrix(0,-.06,-.06,-0,744,598)"/>
<path d="M3794 4824 4126 4248" stroke="#000000" fill="none" stroke-linejoin="round" stroke-linecap="round" stroke-width="9" transform="matrix(0,-.06,-.06,-0,744,598)"/>
<path d="M3262 3902H2863L2730 4133" stroke="#c7c8ca" fill="none" stroke-linejoin="round" stroke-linecap="round" stroke-width="6" transform="matrix(0,-.06,-.06,-0,744,598)"/>
<path d="M2840 3941 3106 4402" stroke="#c7c8ca" fill="none" stroke-linejoin="round" stroke-linecap="round" stroke-width="6" transform="matrix(0,-.06,-.06,-0,744,598)"/>
<path d="M3794 4824 3688 4826 3582 4834 3477 4846 3372 4863 3106 4402 3211 4385 3316 4373 3422 4365 3528 4363" stroke="#000000" fill="none" stroke-linejoin="round" stroke-linecap="round" stroke-width="9" transform="matrix(0,-.06,-.06,-0,744,598)"/>
<path d="M1266 5054 1316 4972 1370 4891 1426 4813 1486 4738 1549 4665 1616 4594 1684 4527 1756 4462 1831 4401 1907 4342 1987 4287 2068 4235 2152 4187 2237 4142 2325 4101 2414 4064 2504 4030 2596 4000 2689 3975 2783 3953 2877 3934 2973 3920 3069 3910 3165 3904 3262 3902" stroke="#000000" fill="none" stroke-linejoin="round" stroke-linecap="round" stroke-width="9" transform="matrix(0,-.06,-.06,-0,744,598)"/>
<path d="M4126 4248H3727L3372 4863" stroke="#000000" fill="none" stroke-linejoin="round" stroke-linecap="round" stroke-width="9" transform="matrix(0,-.06,-.06,-0,744,598)"/>
<path d="M3860 3787H3834 3461" stroke="#c7c8ca" fill="none" stroke-linejoin="round" stroke-linecap="round" stroke-width="6" transform="matrix(0,-.06,-.06,-0,744,598)"/>
<path d="M3661 4133 3727 4248" stroke="#000000" fill="none" stroke-linejoin="round" stroke-linecap="round" stroke-width="9" transform="matrix(0,-.06,-.06,-0,744,598)"/>
<path d="M3129 2750 3461 3326" stroke="#000000" fill="none" stroke-linejoin="round" stroke-linecap="round" stroke-width="9" transform="matrix(0,-.06,-.06,-0,744,598)"/>
<path d="M3794 3902 3927 4133" stroke="#000000" fill="none" stroke-linejoin="round" stroke-linecap="round" stroke-width="9" transform="matrix(0,-.06,-.06,-0,744,598)"/>
<path d="M2796 3326 3594 4709" stroke="#c7c8ca" fill="none" stroke-linejoin="round" stroke-linecap="round" stroke-width="6" transform="matrix(0,-.06,-.06,-0,744,598)"/>
<path d="M3860 4248 3927 4133" stroke="#000000" fill="none" stroke-linejoin="round" stroke-linecap="round" stroke-width="9" transform="matrix(0,-.06,-.06,-0,744,598)"/>
</g>
</g>
</svg>