<?xml version="1.0" encoding="utf-8"?>
<!-- Generator: Adobe Illustrator 27.0.0, SVG Export Plug-In . SVG Version: 6.00 Build 0)  -->
<svg version="1.1" id="Layer_1" xmlns="http://www.w3.org/2000/svg" xmlns:xlink="http://www.w3.org/1999/xlink" x="0px" y="0px"
	 viewBox="0 0 6000 2500" style="enable-background:new 0 0 6000 2500;" xml:space="preserve">
<style type="text/css">
	.st0{fill:#FFFFFF;stroke:#000000;stroke-width:6;stroke-miterlimit:10;}
	.st1{fill:none;}
	.st2{font-family:'ArialMT';}
	.st3{font-size:150px;}
	.st4{fill:none;stroke:#000000;stroke-width:6;stroke-miterlimit:10;}
	.st5{font-family:'MyriadPro-Regular';}
	.st6{fill:#FFFFFF;stroke:#231F20;stroke-width:6;stroke-miterlimit:10;}
</style>
<ellipse class="st0" cx="1695.8" cy="280.4" rx="315.3" ry="205.7"/>
<rect x="1018.8" y="574.5" class="st0" width="1393.8" height="281.2"/>
<rect x="1232.9" y="1403.5" class="st0" width="975" height="281.2"/>
<rect x="1195.2" y="1853.9" class="st0" width="1001.4" height="281.2"/>
<ellipse class="st0" cx="1695.8" cy="2324.5" rx="315.3" ry="150.5"/>
<rect x="1505.6" y="224.7" class="st1" width="429.7" height="168.8"/>
<text transform="matrix(1 0 0 1 1505.5781 331.1885)" class="st2 st3"> Start</text>
<rect x="1167.8" y="657.3" class="st1" width="1056.1" height="168.8"/>
<text transform="matrix(1 0 0 1 1114.12 763.7786)" class="st2 st3"> Declare a, b &amp; c</text>
<rect x="1398.6" y="1048.4" class="st1" width="643.7" height="168.8"/>
<rect x="1405.6" y="1481.9" class="st1" width="749.9" height="168.8"/>
<text transform="matrix(1 0 0 1 1405.5507 1588.3716)" class="st2 st3"> c = a + b</text>
<rect x="1502.5" y="1910.2" class="st1" width="429.7" height="168.7"/>
<text transform="matrix(1 0 0 1 1502.525 2016.6509)" class="st2 st3">Print c</text>
<rect x="1587.2" y="2237.3" class="st1" width="406.2" height="174.5"/>
<text transform="matrix(1 0 0 1 1587.25 2343.78)" class="st2 st3">Stop </text>
<line class="st1" x1="1695.8" y1="486" x2="1695.8" y2="574.5"/>
<line class="st4" x1="1695.8" y1="855.8" x2="1695.8" y2="1017.6"/>
<line class="st4" x1="1695.8" y1="486" x2="1695.8" y2="574.5"/>
<line class="st4" x1="1695.8" y1="1250" x2="1695.8" y2="1403.5"/>
<line class="st4" x1="1717.4" y1="1684.8" x2="1720.4" y2="1853.9"/>
<line class="st4" x1="1695.8" y1="2135.1" x2="1695.8" y2="2174.1"/>
<ellipse class="st0" cx="4581" cy="280.4" rx="315.3" ry="205.7"/>
<rect x="4265.7" y="544.8" class="st0" width="630.5" height="281.2"/>
<line class="st4" x1="4307.6" y1="1453.5" x2="4793.5" y2="1453.5"/>
<line class="st4" x1="4793.5" y1="1453.5" x2="4724.8" y2="1372.2"/>
<line class="st4" x1="4793.5" y1="1453.5" x2="4759.1" y2="1544.1"/>
<line class="st1" x1="1695.8" y1="574.5" x2="1742" y2="530.2"/>
<line class="st4" x1="1695.8" y1="1017.6" x2="1742" y2="976"/>
<line class="st4" x1="1695.8" y1="574.5" x2="1742" y2="530.2"/>
<line class="st4" x1="1695.8" y1="1403.5" x2="1745" y2="1360"/>
<line class="st4" x1="1695.8" y1="1017.6" x2="1646" y2="979"/>
<line class="st4" x1="1695.8" y1="574.5" x2="1646" y2="552.4"/>
<line class="st4" x1="1695.8" y1="1403.5" x2="1640" y2="1369"/>
<line class="st4" x1="1695.8" y1="2174.1" x2="1649" y2="2154.6"/>
<line class="st4" x1="1720.4" y1="1853.9" x2="1667.9" y2="1825"/>
<line class="st4" x1="1695.8" y1="2174.1" x2="1736" y2="2154.6"/>
<line class="st4" x1="1720.4" y1="1853.9" x2="1760" y2="1810"/>
<rect x="5037.5" y="215.6" class="st1" width="775" height="231.2"/>
<text transform="matrix(1 0 0 1 5037.5 322.062)" class="st5 st3">Start/ Stop</text>
<rect x="5037.5" y="599.5" class="st1" width="962.5" height="231.2"/>
<text transform="matrix(1 0 0 1 5037.5 705.9985)" class="st5 st3">Input &amp; Output</text>
<rect x="5037.5" y="941.1" class="st1" width="775" height="370.9"/>
<text transform="matrix(1 0 0 1 5037.5 1047.561)"><tspan x="0" y="0" class="st5 st3">Processing,</tspan><tspan x="0" y="180" class="st5 st3">Declare</tspan></text>
<rect x="4999.8" y="1383.2" class="st1" width="775" height="231.2"/>
<text transform="matrix(1 0 0 1 4999.7578 1489.6831)" class="st5 st3">Flowline</text>
<polygon class="st6" points="1227.6,1010.3 1114.1,1242.7 2198.4,1242.7 2277.6,1010.3 "/>
<rect x="1318.8" y="1069" class="st1" width="593.8" height="138.3"/>
<text transform="matrix(1 0 0 1 1318.75 1175.458)" class="st5 st3">Input a, b</text>
<polygon class="st6" points="4327.2,972.8 4265.7,1205.2 4853.4,1205.2 4896.3,972.8 "/>
</svg>
