<?xml version="1.0" encoding="utf-8"?>
<!-- Generator: Adobe Illustrator 27.0.0, SVG Export Plug-In . SVG Version: 6.00 Build 0)  -->
<svg version="1.1" id="Layer_1" xmlns="http://www.w3.org/2000/svg" xmlns:xlink="http://www.w3.org/1999/xlink" x="0px" y="0px"
	 viewBox="0 0 6000 2500" style="enable-background:new 0 0 6000 2500;" xml:space="preserve">
<style type="text/css">
	.st0{fill:none;}
	.st1{font-family:'ArialMT';}
	.st2{font-size:150px;}
	.st3{fill:#FFFFFF;stroke:#000000;stroke-width:6;stroke-miterlimit:10;}
	.st4{fill:none;stroke:#000000;stroke-width:6;stroke-miterlimit:10;}
</style>
<rect x="199.8" y="241" class="st0" width="1025" height="368.8"/>
<text transform="matrix(1 0 0 1 199.75 347.4985)" class="st1 st2">  </text>
<rect x="199.8" y="1403.5" class="st3" width="1025" height="368.8"/>
<rect x="199.8" y="822.2" class="st3" width="1025" height="368.8"/>
<rect x="1631" y="822.2" class="st3" width="1025" height="368.8"/>
<rect x="3062.2" y="822.2" class="st3" width="1025" height="368.8"/>
<rect x="3062.2" y="241" class="st3" width="1025" height="368.8"/>
<rect x="3062.2" y="1403.5" class="st3" width="1025" height="368.8"/>
<rect x="4493.5" y="822.2" class="st3" width="1025" height="368.8"/>
<rect x="4493.5" y="241" class="st3" width="1025" height="368.8"/>
<rect x="199.8" y="241" class="st3" width="1025" height="368.8"/>
<rect x="299.8" y="356.1" class="st0" width="925" height="206.3"/>
<text transform="matrix(1 0 0 1 299.75 462.6479)" class="st1 st2">Source Code</text>
<rect x="299.8" y="903.5" class="st0" width="925" height="206.2"/>
<text transform="matrix(1 0 0 1 299.75 1009.9985)" class="st1 st2">Source Code</text>
<rect x="299.8" y="1484.8" class="st0" width="925" height="206.2"/>
<text transform="matrix(1 0 0 1 299.75 1591.2485)" class="st1 st2">Source Code</text>
<rect x="1842.2" y="949.1" class="st0" width="868.8" height="193.8"/>
<text transform="matrix(1 0 0 1 1842.2188 1055.5718)" class="st1 st2">Compiler</text>
<rect x="3212.2" y="336.2" class="st0" width="912.5" height="256.3"/>
<text transform="matrix(1 0 0 1 3212.25 442.6694)" class="st1 st2">Object File </text>
<rect x="3212.2" y="917.8" class="st0" width="912.5" height="256.3"/>
<text transform="matrix(1 0 0 1 3212.25 1024.3218)" class="st1 st2">Object File </text>
<rect x="3212.2" y="1518.7" class="st0" width="912.5" height="256.2"/>
<text transform="matrix(1 0 0 1 3212.25 1625.1475)" class="st1 st2">Object File </text>
<rect x="4800.9" y="322.2" class="st0" width="768.8" height="206.2"/>
<text transform="matrix(1 0 0 1 4800.8555 428.7485)" class="st1 st2">Library</text>
<rect x="4574.8" y="934.8" class="st0" width="900" height="175"/>
<text transform="matrix(1 0 0 1 4574.75 1041.2485)" class="st1 st2">Linker</text>
<rect x="4493.5" y="1408.5" class="st3" width="1025" height="368.8"/>
<rect x="4586.1" y="1450" class="st0" width="900" height="393.5"/>
<text transform="matrix(1 0 0 1 4586.1484 1556.5215)" class="st1 st2">Executable </text>
<text transform="matrix(1 0 0 1 4586.1484 1736.5215)" class="st1 st2">Code</text>
<path class="st4" d="M1224.8,425.4c0,323.1,181.7,584.6,406.2,584.6"/>
<path class="st4" d="M1224.8,1006.6c0,1.9,181.7,3.4,406.2,3.4"/>
<path class="st4" d="M1224.8,1591.2c0-321.3,181.7-581.2,406.2-581.2"/>
<path class="st4" d="M2656,1011.7c0-321.3,181.7-581.2,406.2-581.2"/>
<path class="st4" d="M2656,1011.7c0-321.3,181.7-581.2,406.2-581.2"/>
<path class="st4" d="M2656,1011.7c0-2.8,181.7-5,406.2-5"/>
<path class="st4" d="M2656,1011.7c0,321.3,181.7,581.2,406.2,581.2"/>
<path class="st4" d="M4087.2,425.4c0,321.3,181.7,581.2,406.2,581.2"/>
<path class="st4" d="M4087.2,1011.7c0-2.8,181.7-5,406.2-5"/>
<path class="st4" d="M4087.2,1591.2c0-323.1,181.7-584.6,406.2-584.6"/>
<path class="st4" d="M4956.2,609.8c0,117.5,0,212.5,0,212.5"/>
<path class="st4" d="M4981,1191c0,117.5,11.2,212.5,25,212.5"/>
</svg>
