<?xml version="1.0" encoding="utf-8"?>
<!-- Generator: Adobe Illustrator 27.0.0, SVG Export Plug-In . SVG Version: 6.00 Build 0)  -->
<svg version="1.1" id="Layer_1" xmlns="http://www.w3.org/2000/svg" xmlns:xlink="http://www.w3.org/1999/xlink" x="0px" y="0px"
	 viewBox="0 0 4843 909" style="enable-background:new 0 0 4843 909;" xml:space="preserve">
<style type="text/css">
	.st0{font-family:'ArialMT';}
	.st1{font-size:200px;}
	.st2{fill:none;stroke:#000000;stroke-width:7;stroke-miterlimit:10;}
	.st3{font-size:107px;}
	.st4{font-family:'MyriadPro-Regular';}
	.st5{font-size:100px;}
</style>
<text transform="matrix(1 0 0 1 293.4341 641.7537)" class="st0 st1">CH</text>
<line class="st2" x1="631.4" y1="557.2" x2="838.4" y2="557.2"/>
<line class="st2" x1="630.4" y1="599" x2="837.4" y2="599"/>
<text transform="matrix(1 0 0 1 861.3376 641.7537)" class="st0 st1">CH</text>
<line class="st2" x1="1000.9" y1="478.8" x2="1000.9" y2="339.2"/>
<text transform="matrix(1 0 0 1 909.0371 314.7043)" class="st0 st1">Cl</text>
<text transform="matrix(1 0 0 1 307.1592 806.8638)" class="st0 st3">(Chloroethane)(VC)</text>
<g>
	<polyline class="st2" points="1199,551.5 3091.5,551.5 2906,431.8 	"/>
	<line class="st2" x1="2899.8" y1="682.7" x2="3091.5" y2="551.5"/>
</g>
<text transform="matrix(1 0 0 1 1298 491.5)" class="st0 st3">Δ ,Pressure, cat. Benzoyl Peroxide</text>
<text transform="matrix(1 0 0 1 1591.1304 682.7168)" class="st0 st3">Polymerization</text>
<text transform="matrix(0.9533 0 0 1 3198.2197 595.3154)" class="st0 st1">-----CH</text>
<line class="st2" x1="3793" y1="552.6" x2="4000" y2="552.6"/>
<text transform="matrix(1 0 0 1 4023.8713 595.3154)" class="st0 st1">CH-----</text>
<line class="st2" x1="4163.5" y1="432.3" x2="4163.5" y2="292.8"/>
<text transform="matrix(1 0 0 1 4071.5708 268.2661)" class="st0 st1">Cl</text>
<text transform="matrix(1 0 0 1 3457.4473 799.5955)" class="st0 st3">(Polymer)(PVC)</text>
<path class="st2" d="M3392.8,118c-18.6,55.6-124.5,383.7-9,553.6c8.3,12.3,18,24,29.2,34.8"/>
<path class="st2" d="M4295.9,109.4c20.3,57.2,136.2,395,9.8,569.8c-9.1,12.6-19.7,24.7-32,35.8"/>
<text transform="matrix(1 0 0 1 4338.0234 723.6262)" class="st0 st3">n</text>
<text transform="matrix(1 0 0 1 3787.97 644.1521)" class="st4 st5">2</text>
<text transform="matrix(1 0 0 1 580.116 666.0068)" class="st4 st5">2</text>
<path class="st2" d="M1130.6,80.9c19.9,57.2,133.7,395,9.7,569.8c-9,12.6-19.3,24.7-31.4,35.8"/>
<path class="st2" d="M324.4,95.4c-18.6,55.6-124.5,383.7-9,553.6c8.3,12.3,18,24,29.2,34.8"/>
<text transform="matrix(1 0 0 1 195.7778 666.0068)" class="st0 st3">n</text>
</svg>
