<?xml version="1.0" encoding="UTF-8"?>
<svg id="Layer_1" data-name="Layer 1" xmlns="http://www.w3.org/2000/svg" viewBox="0 0 3737.36 4392.56">
  <defs>
    <style>
      .cls-1 {
        fill: #fff;
        stroke: #231f20;
        stroke-miterlimit: 10;
        stroke-width: 50px;
      }
    </style>
  </defs>
  <path class="cls-1" d="M25,1148.01L1259.32,410.49s1228.33,729.12,1234.8,737.52c6.47,8.4,0,559.2,0,559.2L1261,944.73,25,1707.21v-559.2Z"/>
  <polygon class="cls-1" points="25 1845.45 1261 1128.33 1719.4 1409.13 501.16 2104.65 505.48 3525.93 25 3262.41 25 1845.45"/>
  <polygon class="cls-1" points="645.16 2213.93 1108.84 1910.25 1108.84 3356.01 2321.32 4052.97 1921.66 4362.47 645.16 3618.09 645.16 2213.93"/>
  <polygon class="cls-1" points="1261 2713.77 2485.48 3439.53 3712.36 2713.77 3712.36 3284.01 2486.68 3992.49 1261 3278.25 1261 2713.77"/>
  <polygon class="cls-1" points="1979.88 3001.77 2486.68 3289.77 3712.36 2592.81 3712.36 1128.33 3234.28 859.05 3234.28 2327.13 1979.88 3001.77"/>
  <polygon class="cls-1" points="2629.48 1058.85 2629.48 2477.61 3119.08 2213.93 3119.08 784.17 1863.4 29.61 1391.08 346.41 2629.48 1058.85"/>
</svg>