<?xml version="1.0" encoding="UTF-8"?>
<svg id="Layer_1" data-name="Layer 1" xmlns="http://www.w3.org/2000/svg" viewBox="0 0 3687.36 4332.86">
  <defs>
    <style>
      .cls-1 {
        fill: #171717;
      }
    </style>
  </defs>
  <path class="cls-1" d="M0,1118.4L1234.32,380.88s1228.33,729.12,1234.8,737.52c6.47,8.4,0,559.2,0,559.2L1236,915.12,0,1677.6v-559.2Z"/>
  <polygon class="cls-1" points="0 1815.84 1236 1098.72 1694.4 1379.52 476.16 2075.04 480.48 3496.32 0 3232.8 0 1815.84"/>
  <polygon class="cls-1" points="620.16 2184.32 1083.84 1880.64 1083.84 3326.4 2296.32 4023.36 1896.66 4332.86 620.16 3588.48 620.16 2184.32"/>
  <polygon class="cls-1" points="1236 2684.16 2460.48 3409.92 3687.36 2684.16 3687.36 3254.4 2461.68 3962.88 1236 3248.64 1236 2684.16"/>
  <polygon class="cls-1" points="1954.88 2972.16 2461.68 3260.16 3687.36 2563.2 3687.36 1098.72 3209.28 829.44 3209.28 2297.52 1954.88 2972.16"/>
  <polygon class="cls-1" points="2604.48 1029.24 2604.48 2448 3094.08 2184.32 3094.08 754.56 1838.4 0 1366.08 316.8 2604.48 1029.24"/>
</svg>